<mxfile host="Electron" agent="Mozilla/5.0 (X11; Linux x86_64) AppleWebKit/537.36 (KHTML, like Gecko) draw.io/26.1.1 Chrome/132.0.6834.210 Electron/34.3.3 Safari/537.36" version="26.1.1">
  <diagram name="RF Board" id="B-j036tHILslb2G_n7PN">
    <mxGraphModel dx="1269" dy="733" grid="1" gridSize="10" guides="1" tooltips="1" connect="1" arrows="1" fold="1" page="1" pageScale="1" pageWidth="1654" pageHeight="2336" math="0" shadow="0">
      <root>
        <mxCell id="0" />
        <mxCell id="1" parent="0" />
        <mxCell id="nqcRDhzoilnJjKWwHqof-367" value="CW amp" style="rounded=1;whiteSpace=wrap;html=1;fontFamily=Helvetica;fontSize=11;fontColor=default;labelBackgroundColor=default;" parent="1" vertex="1">
          <mxGeometry x="610" y="1000" width="80" height="40" as="geometry" />
        </mxCell>
        <mxCell id="nqcRDhzoilnJjKWwHqof-146" value="" style="group" parent="1" vertex="1" connectable="0">
          <mxGeometry x="80" y="80" width="920" height="480" as="geometry" />
        </mxCell>
        <mxCell id="nqcRDhzoilnJjKWwHqof-145" value="Hardware Wiring Diagram" style="rounded=1;whiteSpace=wrap;html=1;labelPosition=center;verticalLabelPosition=top;align=center;verticalAlign=bottom;fontSize=20;" parent="nqcRDhzoilnJjKWwHqof-146" vertex="1">
          <mxGeometry width="920" height="480" as="geometry" />
        </mxCell>
        <mxCell id="nqcRDhzoilnJjKWwHqof-128" value="&lt;span style=&quot;color: rgb(0, 0, 0); font-family: Helvetica; font-size: 11px; font-style: normal; font-variant-ligatures: normal; font-variant-caps: normal; font-weight: 400; letter-spacing: normal; orphans: 2; text-align: center; text-indent: 0px; text-transform: none; widows: 2; word-spacing: 0px; -webkit-text-stroke-width: 0px; white-space: nowrap; background-color: rgb(255, 255, 255); text-decoration-thickness: initial; text-decoration-style: initial; text-decoration-color: initial; display: inline !important; float: none;&quot;&gt;GPIOA/6&lt;/span&gt;" style="edgeStyle=orthogonalEdgeStyle;rounded=0;orthogonalLoop=1;jettySize=auto;html=1;exitX=1;exitY=0.25;exitDx=0;exitDy=0;entryX=0;entryY=0.5;entryDx=0;entryDy=0;strokeColor=light-dark(#787878, #ededed);strokeWidth=2;align=center;verticalAlign=middle;fontFamily=Helvetica;fontSize=11;fontColor=default;labelBackgroundColor=default;startArrow=none;startFill=0;endArrow=block;endFill=0;" parent="nqcRDhzoilnJjKWwHqof-146" source="nqcRDhzoilnJjKWwHqof-41" target="nqcRDhzoilnJjKWwHqof-147" edge="1">
          <mxGeometry x="-0.4545" relative="1" as="geometry">
            <mxPoint as="offset" />
          </mxGeometry>
        </mxCell>
        <mxCell id="nqcRDhzoilnJjKWwHqof-129" value="&lt;span style=&quot;color: rgb(0, 0, 0); font-family: Helvetica; font-size: 11px; font-style: normal; font-variant-ligatures: normal; font-variant-caps: normal; font-weight: 400; letter-spacing: normal; orphans: 2; text-align: center; text-indent: 0px; text-transform: none; widows: 2; word-spacing: 0px; -webkit-text-stroke-width: 0px; white-space: nowrap; background-color: rgb(255, 255, 255); text-decoration-thickness: initial; text-decoration-style: initial; text-decoration-color: initial; display: inline !important; float: none;&quot;&gt;GPIOB/6&lt;/span&gt;" style="edgeStyle=orthogonalEdgeStyle;rounded=0;orthogonalLoop=1;jettySize=auto;html=1;exitX=1;exitY=0.75;exitDx=0;exitDy=0;entryX=0.5;entryY=0;entryDx=0;entryDy=0;strokeColor=light-dark(#787878, #ededed);strokeWidth=2;align=center;verticalAlign=middle;fontFamily=Helvetica;fontSize=11;fontColor=default;labelBackgroundColor=default;startArrow=none;startFill=0;endArrow=block;endFill=0;" parent="nqcRDhzoilnJjKWwHqof-146" source="nqcRDhzoilnJjKWwHqof-41" target="nqcRDhzoilnJjKWwHqof-216" edge="1">
          <mxGeometry x="-0.8997" relative="1" as="geometry">
            <mxPoint as="offset" />
          </mxGeometry>
        </mxCell>
        <mxCell id="nqcRDhzoilnJjKWwHqof-41" value="I2C to&amp;nbsp;&lt;div&gt;GPIO&lt;/div&gt;" style="rounded=0;whiteSpace=wrap;html=1;" parent="nqcRDhzoilnJjKWwHqof-146" vertex="1">
          <mxGeometry x="40" y="100" width="50" height="80" as="geometry" />
        </mxCell>
        <mxCell id="nqcRDhzoilnJjKWwHqof-71" style="edgeStyle=orthogonalEdgeStyle;rounded=0;orthogonalLoop=1;jettySize=auto;html=1;exitX=1;exitY=0.5;exitDx=0;exitDy=0;entryX=0;entryY=0.5;entryDx=0;entryDy=0;strokeColor=default;align=center;verticalAlign=middle;fontFamily=Helvetica;fontSize=11;fontColor=default;labelBackgroundColor=default;startFill=0;endArrow=none;strokeWidth=2;" parent="nqcRDhzoilnJjKWwHqof-146" source="nqcRDhzoilnJjKWwHqof-147" target="nqcRDhzoilnJjKWwHqof-67" edge="1">
          <mxGeometry relative="1" as="geometry" />
        </mxCell>
        <mxCell id="nqcRDhzoilnJjKWwHqof-109" style="edgeStyle=orthogonalEdgeStyle;rounded=0;orthogonalLoop=1;jettySize=auto;html=1;exitX=1;exitY=0.5;exitDx=0;exitDy=0;entryX=-0.002;entryY=0.783;entryDx=0;entryDy=0;endArrow=none;startFill=0;strokeWidth=2;entryPerimeter=0;" parent="nqcRDhzoilnJjKWwHqof-146" source="nqcRDhzoilnJjKWwHqof-216" target="nqcRDhzoilnJjKWwHqof-100" edge="1">
          <mxGeometry relative="1" as="geometry" />
        </mxCell>
        <mxCell id="nqcRDhzoilnJjKWwHqof-50" value="Si5351 LO" style="rounded=0;whiteSpace=wrap;html=1;dashed=1;labelPosition=center;verticalLabelPosition=middle;align=center;verticalAlign=middle;" parent="nqcRDhzoilnJjKWwHqof-146" vertex="1">
          <mxGeometry x="160" y="170" width="100" height="160" as="geometry" />
        </mxCell>
        <mxCell id="nqcRDhzoilnJjKWwHqof-55" style="edgeStyle=orthogonalEdgeStyle;shape=connector;rounded=0;orthogonalLoop=1;jettySize=auto;html=1;exitX=0;exitY=0.25;exitDx=0;exitDy=0;entryX=0.5;entryY=1;entryDx=0;entryDy=0;strokeColor=light-dark(#787878, #ededed);align=center;verticalAlign=middle;fontFamily=Helvetica;fontSize=11;fontColor=default;labelBackgroundColor=default;startFill=0;endArrow=block;strokeWidth=2;startArrow=none;endFill=0;" parent="nqcRDhzoilnJjKWwHqof-146" source="nqcRDhzoilnJjKWwHqof-124" target="nqcRDhzoilnJjKWwHqof-83" edge="1">
          <mxGeometry relative="1" as="geometry">
            <mxPoint x="317" y="380" as="sourcePoint" />
            <mxPoint x="20" y="340" as="targetPoint" />
          </mxGeometry>
        </mxCell>
        <mxCell id="nqcRDhzoilnJjKWwHqof-56" value="HI=CW On&lt;div&gt;LO=CW Off&lt;/div&gt;" style="edgeLabel;html=1;align=center;verticalAlign=middle;resizable=0;points=[];fontFamily=Helvetica;fontSize=11;fontColor=default;labelBackgroundColor=default;" parent="nqcRDhzoilnJjKWwHqof-55" vertex="1" connectable="0">
          <mxGeometry x="-0.7912" relative="1" as="geometry">
            <mxPoint x="-38" y="-45" as="offset" />
          </mxGeometry>
        </mxCell>
        <mxCell id="nqcRDhzoilnJjKWwHqof-58" value="&lt;span style=&quot;color: rgb(0, 0, 0); font-family: Helvetica; font-size: 11px; font-style: normal; font-variant-ligatures: normal; font-variant-caps: normal; font-weight: 400; letter-spacing: normal; orphans: 2; text-align: center; text-indent: 0px; text-transform: none; widows: 2; word-spacing: 0px; -webkit-text-stroke-width: 0px; white-space: nowrap; background-color: rgb(255, 255, 255); text-decoration-thickness: initial; text-decoration-style: initial; text-decoration-color: initial; display: inline !important; float: none;&quot;&gt;HI=SSB&lt;/span&gt;&lt;div&gt;&lt;span style=&quot;color: rgb(0, 0, 0); font-family: Helvetica; font-size: 11px; font-style: normal; font-variant-ligatures: normal; font-variant-caps: normal; font-weight: 400; letter-spacing: normal; orphans: 2; text-align: center; text-indent: 0px; text-transform: none; widows: 2; word-spacing: 0px; -webkit-text-stroke-width: 0px; white-space: nowrap; background-color: rgb(255, 255, 255); text-decoration-thickness: initial; text-decoration-style: initial; text-decoration-color: initial; display: inline !important; float: none;&quot;&gt;LO=CW&lt;/span&gt;&lt;/div&gt;" style="edgeStyle=orthogonalEdgeStyle;shape=connector;rounded=0;orthogonalLoop=1;jettySize=auto;html=1;exitX=0.5;exitY=0;exitDx=0;exitDy=0;entryX=0.5;entryY=1;entryDx=0;entryDy=0;strokeColor=light-dark(#787878, #ededed);align=center;verticalAlign=middle;fontFamily=Helvetica;fontSize=11;fontColor=default;labelBackgroundColor=default;startFill=0;endArrow=block;strokeWidth=2;endFill=0;" parent="nqcRDhzoilnJjKWwHqof-146" source="nqcRDhzoilnJjKWwHqof-270" target="nqcRDhzoilnJjKWwHqof-85" edge="1">
          <mxGeometry x="-0.6078" relative="1" as="geometry">
            <mxPoint x="20" y="490" as="targetPoint" />
            <Array as="points" />
            <mxPoint as="offset" />
          </mxGeometry>
        </mxCell>
        <mxCell id="nqcRDhzoilnJjKWwHqof-61" value="HI=TX&lt;div&gt;LO=RX&lt;/div&gt;" style="edgeStyle=orthogonalEdgeStyle;shape=connector;rounded=0;orthogonalLoop=1;jettySize=auto;html=1;exitX=0.5;exitY=0;exitDx=0;exitDy=0;entryX=0;entryY=0.5;entryDx=0;entryDy=0;strokeColor=light-dark(#787878, #ededed);align=center;verticalAlign=middle;fontFamily=Helvetica;fontSize=11;fontColor=default;labelBackgroundColor=default;startFill=0;endArrow=block;strokeWidth=2;endFill=0;" parent="nqcRDhzoilnJjKWwHqof-146" source="nqcRDhzoilnJjKWwHqof-271" target="nqcRDhzoilnJjKWwHqof-305" edge="1">
          <mxGeometry x="-0.6178" relative="1" as="geometry">
            <mxPoint x="20" y="400" as="targetPoint" />
            <mxPoint as="offset" />
          </mxGeometry>
        </mxCell>
        <mxCell id="nqcRDhzoilnJjKWwHqof-63" value="HI=on (calibration mode)&lt;div&gt;LO=off&lt;/div&gt;" style="edgeStyle=orthogonalEdgeStyle;shape=connector;rounded=0;orthogonalLoop=1;jettySize=auto;html=1;exitX=1;exitY=0.5;exitDx=0;exitDy=0;entryX=0.5;entryY=1;entryDx=0;entryDy=0;strokeColor=light-dark(#787878, #ededed);align=left;verticalAlign=middle;fontFamily=Helvetica;fontSize=11;fontColor=default;labelBackgroundColor=default;startFill=0;endArrow=block;strokeWidth=2;endFill=0;" parent="nqcRDhzoilnJjKWwHqof-146" source="nqcRDhzoilnJjKWwHqof-124" target="nqcRDhzoilnJjKWwHqof-100" edge="1">
          <mxGeometry x="-0.7619" relative="1" as="geometry">
            <mxPoint x="20" y="549.9999999999995" as="targetPoint" />
            <mxPoint as="offset" />
          </mxGeometry>
        </mxCell>
        <mxCell id="nqcRDhzoilnJjKWwHqof-70" style="edgeStyle=orthogonalEdgeStyle;rounded=0;orthogonalLoop=1;jettySize=auto;html=1;exitX=0.5;exitY=1;exitDx=0;exitDy=0;entryX=0.5;entryY=0;entryDx=0;entryDy=0;endArrow=none;startFill=0;strokeWidth=2;" parent="nqcRDhzoilnJjKWwHqof-146" source="nqcRDhzoilnJjKWwHqof-66" target="nqcRDhzoilnJjKWwHqof-147" edge="1">
          <mxGeometry relative="1" as="geometry" />
        </mxCell>
        <mxCell id="nqcRDhzoilnJjKWwHqof-66" value="RX in" style="ellipse;whiteSpace=wrap;html=1;aspect=fixed;fontFamily=Helvetica;fontSize=11;labelBackgroundColor=default;labelPosition=left;verticalLabelPosition=middle;align=right;verticalAlign=middle;strokeWidth=2;fillColor=#dae8fc;strokeColor=#6c8ebf;" parent="nqcRDhzoilnJjKWwHqof-146" vertex="1">
          <mxGeometry x="240" y="50" width="20" height="20" as="geometry" />
        </mxCell>
        <mxCell id="nqcRDhzoilnJjKWwHqof-72" style="edgeStyle=orthogonalEdgeStyle;rounded=0;orthogonalLoop=1;jettySize=auto;html=1;exitX=1;exitY=0.5;exitDx=0;exitDy=0;entryX=0;entryY=0.5;entryDx=0;entryDy=0;strokeColor=default;align=center;verticalAlign=middle;fontFamily=Helvetica;fontSize=11;fontColor=default;labelBackgroundColor=default;startFill=0;endArrow=none;strokeWidth=2;" parent="nqcRDhzoilnJjKWwHqof-146" source="nqcRDhzoilnJjKWwHqof-67" target="nqcRDhzoilnJjKWwHqof-68" edge="1">
          <mxGeometry relative="1" as="geometry" />
        </mxCell>
        <mxCell id="nqcRDhzoilnJjKWwHqof-67" value="Tayloe Mixer" style="rounded=1;whiteSpace=wrap;html=1;fontFamily=Helvetica;fontSize=11;fontColor=default;labelBackgroundColor=default;dashed=1;dashPattern=8 8;" parent="nqcRDhzoilnJjKWwHqof-146" vertex="1">
          <mxGeometry x="343" y="100" width="80" height="40" as="geometry" />
        </mxCell>
        <mxCell id="nqcRDhzoilnJjKWwHqof-73" style="edgeStyle=orthogonalEdgeStyle;rounded=0;orthogonalLoop=1;jettySize=auto;html=1;exitX=1;exitY=0.5;exitDx=0;exitDy=0;entryX=0;entryY=0.5;entryDx=0;entryDy=0;strokeColor=default;align=center;verticalAlign=middle;fontFamily=Helvetica;fontSize=11;fontColor=default;labelBackgroundColor=default;startFill=0;endArrow=none;strokeWidth=2;" parent="nqcRDhzoilnJjKWwHqof-146" source="nqcRDhzoilnJjKWwHqof-68" target="nqcRDhzoilnJjKWwHqof-69" edge="1">
          <mxGeometry relative="1" as="geometry" />
        </mxCell>
        <mxCell id="nqcRDhzoilnJjKWwHqof-68" value="LPF" style="rounded=1;whiteSpace=wrap;html=1;fontFamily=Helvetica;fontSize=11;fontColor=default;labelBackgroundColor=default;dashed=1;dashPattern=8 8;" parent="nqcRDhzoilnJjKWwHqof-146" vertex="1">
          <mxGeometry x="463.25" y="100" width="80" height="40" as="geometry" />
        </mxCell>
        <mxCell id="nqcRDhzoilnJjKWwHqof-69" value="RX IQ out" style="ellipse;whiteSpace=wrap;html=1;aspect=fixed;fontFamily=Helvetica;fontSize=11;labelBackgroundColor=none;labelPosition=right;verticalLabelPosition=middle;align=center;verticalAlign=middle;strokeWidth=2;fillColor=#f8cecc;strokeColor=#b85450;" parent="nqcRDhzoilnJjKWwHqof-146" vertex="1">
          <mxGeometry x="593" y="110" width="20" height="20" as="geometry" />
        </mxCell>
        <mxCell id="nqcRDhzoilnJjKWwHqof-77" style="edgeStyle=orthogonalEdgeStyle;rounded=0;orthogonalLoop=1;jettySize=auto;html=1;exitX=1;exitY=0.5;exitDx=0;exitDy=0;entryX=0.5;entryY=1;entryDx=0;entryDy=0;endArrow=none;startFill=0;strokeWidth=2;" parent="nqcRDhzoilnJjKWwHqof-146" source="nqcRDhzoilnJjKWwHqof-74" target="nqcRDhzoilnJjKWwHqof-67" edge="1">
          <mxGeometry relative="1" as="geometry" />
        </mxCell>
        <mxCell id="nqcRDhzoilnJjKWwHqof-82" style="edgeStyle=orthogonalEdgeStyle;rounded=0;orthogonalLoop=1;jettySize=auto;html=1;exitX=1;exitY=0.5;exitDx=0;exitDy=0;entryX=0.5;entryY=0;entryDx=0;entryDy=0;endArrow=none;startFill=0;strokeWidth=2;" parent="nqcRDhzoilnJjKWwHqof-146" source="nqcRDhzoilnJjKWwHqof-74" target="nqcRDhzoilnJjKWwHqof-79" edge="1">
          <mxGeometry relative="1" as="geometry">
            <Array as="points">
              <mxPoint x="383" y="200" />
            </Array>
          </mxGeometry>
        </mxCell>
        <mxCell id="nqcRDhzoilnJjKWwHqof-74" value="SSB VFO" style="rounded=1;whiteSpace=wrap;html=1;fontFamily=Helvetica;fontSize=11;fontColor=default;labelBackgroundColor=default;" parent="nqcRDhzoilnJjKWwHqof-146" vertex="1">
          <mxGeometry x="170" y="180" width="80" height="40" as="geometry" />
        </mxCell>
        <mxCell id="nqcRDhzoilnJjKWwHqof-84" style="edgeStyle=orthogonalEdgeStyle;rounded=0;orthogonalLoop=1;jettySize=auto;html=1;exitX=1;exitY=0.5;exitDx=0;exitDy=0;entryX=0;entryY=0.5;entryDx=0;entryDy=0;endArrow=none;startFill=0;strokeWidth=2;" parent="nqcRDhzoilnJjKWwHqof-146" source="nqcRDhzoilnJjKWwHqof-75" target="nqcRDhzoilnJjKWwHqof-83" edge="1">
          <mxGeometry relative="1" as="geometry" />
        </mxCell>
        <mxCell id="nqcRDhzoilnJjKWwHqof-75" value="CW VFO" style="rounded=1;whiteSpace=wrap;html=1;fontFamily=Helvetica;fontSize=11;fontColor=default;labelBackgroundColor=default;" parent="nqcRDhzoilnJjKWwHqof-146" vertex="1">
          <mxGeometry x="170" y="280" width="80" height="40" as="geometry" />
        </mxCell>
        <mxCell id="nqcRDhzoilnJjKWwHqof-76" value="" style="edgeStyle=orthogonalEdgeStyle;rounded=0;orthogonalLoop=1;jettySize=auto;html=1;exitX=0;exitY=1;exitDx=0;exitDy=0;entryX=0.5;entryY=1;entryDx=0;entryDy=0;endArrow=block;startFill=0;startArrow=block;strokeColor=light-dark(#787878, #ededed);strokeWidth=2;align=center;verticalAlign=middle;fontFamily=Helvetica;fontSize=11;fontColor=default;labelBackgroundColor=default;endFill=0;" parent="nqcRDhzoilnJjKWwHqof-146" source="nqcRDhzoilnJjKWwHqof-273" target="nqcRDhzoilnJjKWwHqof-50" edge="1">
          <mxGeometry relative="1" as="geometry">
            <Array as="points">
              <mxPoint x="210" y="430" />
            </Array>
            <mxPoint x="55" y="380" as="sourcePoint" />
            <mxPoint x="-120" y="155" as="targetPoint" />
          </mxGeometry>
        </mxCell>
        <mxCell id="nqcRDhzoilnJjKWwHqof-80" style="edgeStyle=orthogonalEdgeStyle;rounded=0;orthogonalLoop=1;jettySize=auto;html=1;exitX=1;exitY=0.5;exitDx=0;exitDy=0;entryX=0;entryY=0.5;entryDx=0;entryDy=0;endArrow=none;startFill=0;strokeWidth=2;" parent="nqcRDhzoilnJjKWwHqof-146" source="nqcRDhzoilnJjKWwHqof-78" target="nqcRDhzoilnJjKWwHqof-79" edge="1">
          <mxGeometry relative="1" as="geometry" />
        </mxCell>
        <mxCell id="nqcRDhzoilnJjKWwHqof-78" value="&lt;span&gt;TX IQ in&lt;/span&gt;" style="ellipse;whiteSpace=wrap;html=1;aspect=fixed;fontFamily=Helvetica;fontSize=11;labelBackgroundColor=none;labelPosition=left;verticalLabelPosition=middle;align=center;verticalAlign=middle;strokeWidth=2;fillColor=#f8cecc;strokeColor=#b85450;" parent="nqcRDhzoilnJjKWwHqof-146" vertex="1">
          <mxGeometry x="290" y="220" width="20" height="20" as="geometry" />
        </mxCell>
        <mxCell id="nqcRDhzoilnJjKWwHqof-96" style="edgeStyle=orthogonalEdgeStyle;rounded=0;orthogonalLoop=1;jettySize=auto;html=1;exitX=1.001;exitY=0.454;exitDx=0;exitDy=0;entryX=0;entryY=0.25;entryDx=0;entryDy=0;endArrow=none;startFill=0;exitPerimeter=0;strokeWidth=2;" parent="nqcRDhzoilnJjKWwHqof-146" source="nqcRDhzoilnJjKWwHqof-79" target="nqcRDhzoilnJjKWwHqof-85" edge="1">
          <mxGeometry relative="1" as="geometry" />
        </mxCell>
        <mxCell id="nqcRDhzoilnJjKWwHqof-95" style="edgeStyle=orthogonalEdgeStyle;rounded=0;orthogonalLoop=1;jettySize=auto;html=1;exitX=1;exitY=0.5;exitDx=0;exitDy=0;entryX=0;entryY=0.75;entryDx=0;entryDy=0;endArrow=none;startFill=0;strokeWidth=2;" parent="nqcRDhzoilnJjKWwHqof-146" source="nqcRDhzoilnJjKWwHqof-83" target="nqcRDhzoilnJjKWwHqof-85" edge="1">
          <mxGeometry relative="1" as="geometry">
            <Array as="points">
              <mxPoint x="450" y="300" />
              <mxPoint x="450" y="262" />
            </Array>
          </mxGeometry>
        </mxCell>
        <mxCell id="nqcRDhzoilnJjKWwHqof-94" value="" style="group" parent="nqcRDhzoilnJjKWwHqof-146" vertex="1" connectable="0">
          <mxGeometry x="463" y="210" width="80" height="70" as="geometry" />
        </mxCell>
        <mxCell id="nqcRDhzoilnJjKWwHqof-85" value="CW/&lt;span style=&quot;background-color: light-dark(#ffffff, var(--ge-dark-color, #121212)); color: light-dark(rgb(0, 0, 0), rgb(255, 255, 255));&quot;&gt;SSB&lt;/span&gt;&lt;div&gt;&lt;span style=&quot;background-color: light-dark(#ffffff, var(--ge-dark-color, #121212)); color: light-dark(rgb(0, 0, 0), rgb(255, 255, 255));&quot;&gt;&lt;br&gt;&lt;/span&gt;&lt;/div&gt;&lt;div&gt;&lt;span style=&quot;background-color: light-dark(#ffffff, var(--ge-dark-color, #121212)); color: light-dark(rgb(0, 0, 0), rgb(255, 255, 255));&quot;&gt;&lt;br&gt;&lt;/span&gt;&lt;/div&gt;&lt;div&gt;&lt;span style=&quot;background-color: light-dark(#ffffff, var(--ge-dark-color, #121212)); color: light-dark(rgb(0, 0, 0), rgb(255, 255, 255));&quot;&gt;&lt;br&gt;&lt;/span&gt;&lt;/div&gt;" style="rounded=1;whiteSpace=wrap;html=1;fontFamily=Helvetica;fontSize=11;fontColor=default;labelBackgroundColor=default;labelPosition=center;verticalLabelPosition=middle;align=center;verticalAlign=middle;" parent="nqcRDhzoilnJjKWwHqof-94" vertex="1">
          <mxGeometry width="80" height="70" as="geometry" />
        </mxCell>
        <mxCell id="nqcRDhzoilnJjKWwHqof-93" value="" style="group" parent="nqcRDhzoilnJjKWwHqof-94" vertex="1" connectable="0">
          <mxGeometry x="20" y="23.333333333333336" width="35.5" height="40.83333333333333" as="geometry" />
        </mxCell>
        <mxCell id="nqcRDhzoilnJjKWwHqof-86" value="" style="ellipse;whiteSpace=wrap;html=1;aspect=fixed;" parent="nqcRDhzoilnJjKWwHqof-93" vertex="1">
          <mxGeometry width="4.374999999999999" height="4.374999999999999" as="geometry" />
        </mxCell>
        <mxCell id="nqcRDhzoilnJjKWwHqof-87" value="" style="ellipse;whiteSpace=wrap;html=1;aspect=fixed;" parent="nqcRDhzoilnJjKWwHqof-93" vertex="1">
          <mxGeometry y="34.99999999999999" width="4.374999999999999" height="4.374999999999999" as="geometry" />
        </mxCell>
        <mxCell id="nqcRDhzoilnJjKWwHqof-88" value="" style="ellipse;whiteSpace=wrap;html=1;aspect=fixed;" parent="nqcRDhzoilnJjKWwHqof-93" vertex="1">
          <mxGeometry x="30.5" y="17.499999999999996" width="4.374999999999999" height="4.374999999999999" as="geometry" />
        </mxCell>
        <mxCell id="nqcRDhzoilnJjKWwHqof-89" value="" style="endArrow=none;html=1;rounded=0;entryX=0;entryY=0.5;entryDx=0;entryDy=0;exitX=1;exitY=1;exitDx=0;exitDy=0;" parent="nqcRDhzoilnJjKWwHqof-93" source="nqcRDhzoilnJjKWwHqof-86" target="nqcRDhzoilnJjKWwHqof-88" edge="1">
          <mxGeometry width="50" height="50" relative="1" as="geometry">
            <mxPoint x="-40" y="34.99999999999999" as="sourcePoint" />
            <mxPoint x="10" y="-23.333333333333332" as="targetPoint" />
          </mxGeometry>
        </mxCell>
        <mxCell id="nqcRDhzoilnJjKWwHqof-90" value="" style="endArrow=none;html=1;rounded=0;entryX=0;entryY=0.5;entryDx=0;entryDy=0;exitX=1;exitY=0;exitDx=0;exitDy=0;dashed=1;" parent="nqcRDhzoilnJjKWwHqof-93" source="nqcRDhzoilnJjKWwHqof-87" target="nqcRDhzoilnJjKWwHqof-88" edge="1">
          <mxGeometry width="50" height="50" relative="1" as="geometry">
            <mxPoint x="14" y="16.333333333333332" as="sourcePoint" />
            <mxPoint x="41" y="32.666666666666664" as="targetPoint" />
          </mxGeometry>
        </mxCell>
        <mxCell id="nqcRDhzoilnJjKWwHqof-91" value="1" style="text;html=1;align=center;verticalAlign=middle;whiteSpace=wrap;rounded=0;fontSize=8;" parent="nqcRDhzoilnJjKWwHqof-93" vertex="1">
          <mxGeometry y="4.666666666666666" width="10" height="11.666666666666666" as="geometry" />
        </mxCell>
        <mxCell id="nqcRDhzoilnJjKWwHqof-92" value="0" style="text;html=1;align=center;verticalAlign=middle;whiteSpace=wrap;rounded=0;fontSize=8;" parent="nqcRDhzoilnJjKWwHqof-93" vertex="1">
          <mxGeometry y="23.333333333333332" width="10" height="11.666666666666666" as="geometry" />
        </mxCell>
        <mxCell id="nqcRDhzoilnJjKWwHqof-98" style="edgeStyle=orthogonalEdgeStyle;rounded=0;orthogonalLoop=1;jettySize=auto;html=1;exitX=1;exitY=0.5;exitDx=0;exitDy=0;entryX=0;entryY=0.5;entryDx=0;entryDy=0;endArrow=none;startFill=0;strokeWidth=2;" parent="nqcRDhzoilnJjKWwHqof-146" source="nqcRDhzoilnJjKWwHqof-85" target="nqcRDhzoilnJjKWwHqof-216" edge="1">
          <mxGeometry relative="1" as="geometry" />
        </mxCell>
        <mxCell id="nqcRDhzoilnJjKWwHqof-99" value="" style="group" parent="nqcRDhzoilnJjKWwHqof-146" vertex="1" connectable="0">
          <mxGeometry x="710" y="190" width="80" height="70" as="geometry" />
        </mxCell>
        <mxCell id="nqcRDhzoilnJjKWwHqof-100" value="CAL&lt;br&gt;&lt;div&gt;&lt;span style=&quot;background-color: light-dark(#ffffff, var(--ge-dark-color, #121212)); color: light-dark(rgb(0, 0, 0), rgb(255, 255, 255));&quot;&gt;&lt;br&gt;&lt;/span&gt;&lt;/div&gt;&lt;div&gt;&lt;span style=&quot;background-color: light-dark(#ffffff, var(--ge-dark-color, #121212)); color: light-dark(rgb(0, 0, 0), rgb(255, 255, 255));&quot;&gt;&lt;br&gt;&lt;/span&gt;&lt;/div&gt;&lt;div&gt;&lt;span style=&quot;background-color: light-dark(#ffffff, var(--ge-dark-color, #121212)); color: light-dark(rgb(0, 0, 0), rgb(255, 255, 255));&quot;&gt;&lt;br&gt;&lt;/span&gt;&lt;/div&gt;" style="rounded=1;whiteSpace=wrap;html=1;fontFamily=Helvetica;fontSize=11;fontColor=default;labelBackgroundColor=default;labelPosition=center;verticalLabelPosition=middle;align=center;verticalAlign=middle;" parent="nqcRDhzoilnJjKWwHqof-99" vertex="1">
          <mxGeometry width="80" height="70" as="geometry" />
        </mxCell>
        <mxCell id="nqcRDhzoilnJjKWwHqof-102" value="" style="ellipse;whiteSpace=wrap;html=1;aspect=fixed;" parent="nqcRDhzoilnJjKWwHqof-99" vertex="1">
          <mxGeometry x="40" y="23.623333333333257" width="4.374999999999999" height="4.374999999999999" as="geometry" />
        </mxCell>
        <mxCell id="nqcRDhzoilnJjKWwHqof-103" value="" style="ellipse;whiteSpace=wrap;html=1;aspect=fixed;" parent="nqcRDhzoilnJjKWwHqof-99" vertex="1">
          <mxGeometry x="40" y="53.95333333333325" width="4.374999999999999" height="4.374999999999999" as="geometry" />
        </mxCell>
        <mxCell id="nqcRDhzoilnJjKWwHqof-104" value="" style="ellipse;whiteSpace=wrap;html=1;aspect=fixed;" parent="nqcRDhzoilnJjKWwHqof-99" vertex="1">
          <mxGeometry x="10" y="42.28333333333325" width="4.374999999999999" height="4.374999999999999" as="geometry" />
        </mxCell>
        <mxCell id="nqcRDhzoilnJjKWwHqof-105" value="" style="endArrow=none;html=1;rounded=0;entryX=1;entryY=0.5;entryDx=0;entryDy=0;exitX=0;exitY=1;exitDx=0;exitDy=0;" parent="nqcRDhzoilnJjKWwHqof-99" source="nqcRDhzoilnJjKWwHqof-102" target="nqcRDhzoilnJjKWwHqof-104" edge="1">
          <mxGeometry width="50" height="50" relative="1" as="geometry">
            <mxPoint x="-20" y="58.33333333333325" as="sourcePoint" />
            <mxPoint x="30" y="-7.460698725481052e-14" as="targetPoint" />
          </mxGeometry>
        </mxCell>
        <mxCell id="nqcRDhzoilnJjKWwHqof-106" value="" style="endArrow=none;html=1;rounded=0;entryX=1;entryY=0.5;entryDx=0;entryDy=0;exitX=0;exitY=0;exitDx=0;exitDy=0;dashed=1;" parent="nqcRDhzoilnJjKWwHqof-99" source="nqcRDhzoilnJjKWwHqof-103" target="nqcRDhzoilnJjKWwHqof-104" edge="1">
          <mxGeometry width="50" height="50" relative="1" as="geometry">
            <mxPoint x="34" y="39.666666666666586" as="sourcePoint" />
            <mxPoint x="61" y="55.99999999999992" as="targetPoint" />
          </mxGeometry>
        </mxCell>
        <mxCell id="nqcRDhzoilnJjKWwHqof-107" value="1" style="text;html=1;align=center;verticalAlign=middle;whiteSpace=wrap;rounded=0;fontSize=8;" parent="nqcRDhzoilnJjKWwHqof-99" vertex="1">
          <mxGeometry x="37.19" y="26.999999999999922" width="10" height="11.666666666666666" as="geometry" />
        </mxCell>
        <mxCell id="nqcRDhzoilnJjKWwHqof-108" value="0" style="text;html=1;align=center;verticalAlign=middle;whiteSpace=wrap;rounded=0;fontSize=8;" parent="nqcRDhzoilnJjKWwHqof-99" vertex="1">
          <mxGeometry x="37.19" y="42.286666666666584" width="10" height="11.666666666666666" as="geometry" />
        </mxCell>
        <mxCell id="nqcRDhzoilnJjKWwHqof-110" style="edgeStyle=orthogonalEdgeStyle;rounded=0;orthogonalLoop=1;jettySize=auto;html=1;exitX=0.5;exitY=0;exitDx=0;exitDy=0;entryX=0.5;entryY=0;entryDx=0;entryDy=0;endArrow=none;startFill=0;strokeWidth=2;" parent="nqcRDhzoilnJjKWwHqof-146" source="nqcRDhzoilnJjKWwHqof-100" target="nqcRDhzoilnJjKWwHqof-147" edge="1">
          <mxGeometry relative="1" as="geometry" />
        </mxCell>
        <mxCell id="nqcRDhzoilnJjKWwHqof-111" value="TX out" style="ellipse;whiteSpace=wrap;html=1;aspect=fixed;fontFamily=Helvetica;fontSize=11;labelBackgroundColor=default;labelPosition=right;verticalLabelPosition=middle;align=left;verticalAlign=middle;strokeWidth=2;fillColor=#dae8fc;strokeColor=#6c8ebf;" parent="nqcRDhzoilnJjKWwHqof-146" vertex="1">
          <mxGeometry x="833" y="210" width="20" height="20" as="geometry" />
        </mxCell>
        <mxCell id="nqcRDhzoilnJjKWwHqof-112" style="edgeStyle=orthogonalEdgeStyle;rounded=0;orthogonalLoop=1;jettySize=auto;html=1;exitX=1;exitY=0.75;exitDx=0;exitDy=0;endArrow=none;startFill=0;strokeWidth=2;entryX=0;entryY=0.5;entryDx=0;entryDy=0;" parent="nqcRDhzoilnJjKWwHqof-146" source="nqcRDhzoilnJjKWwHqof-100" target="nqcRDhzoilnJjKWwHqof-111" edge="1">
          <mxGeometry relative="1" as="geometry">
            <mxPoint x="820" y="240" as="targetPoint" />
          </mxGeometry>
        </mxCell>
        <mxCell id="nqcRDhzoilnJjKWwHqof-125" value="" style="group" parent="nqcRDhzoilnJjKWwHqof-146" vertex="1" connectable="0">
          <mxGeometry x="370" y="390" width="120" height="60" as="geometry" />
        </mxCell>
        <mxCell id="nqcRDhzoilnJjKWwHqof-124" value="" style="rounded=0;whiteSpace=wrap;html=1;" parent="nqcRDhzoilnJjKWwHqof-125" vertex="1">
          <mxGeometry width="120" height="60" as="geometry" />
        </mxCell>
        <mxCell id="nqcRDhzoilnJjKWwHqof-123" value="&lt;span style=&quot;color: rgb(0, 0, 0); font-family: Helvetica; font-size: 12px; font-style: normal; font-variant-ligatures: normal; font-variant-caps: normal; font-weight: 400; letter-spacing: normal; orphans: 2; text-align: center; text-indent: 0px; text-transform: none; widows: 2; word-spacing: 0px; -webkit-text-stroke-width: 0px; white-space: normal; background-color: rgb(251, 251, 251); text-decoration-thickness: initial; text-decoration-style: initial; text-decoration-color: initial; display: inline !important; float: none;&quot;&gt;Teensy GPIO&lt;/span&gt;" style="rounded=0;whiteSpace=wrap;html=1;" parent="nqcRDhzoilnJjKWwHqof-125" vertex="1">
          <mxGeometry x="10" y="10" width="100" height="40" as="geometry" />
        </mxCell>
        <mxCell id="nqcRDhzoilnJjKWwHqof-264" value="33" style="rounded=0;whiteSpace=wrap;html=1;fontSize=8;" parent="nqcRDhzoilnJjKWwHqof-125" vertex="1">
          <mxGeometry y="10" width="10" height="10" as="geometry" />
        </mxCell>
        <mxCell id="nqcRDhzoilnJjKWwHqof-270" value="34" style="rounded=0;whiteSpace=wrap;html=1;fontSize=8;" parent="nqcRDhzoilnJjKWwHqof-125" vertex="1">
          <mxGeometry x="90" width="10" height="10" as="geometry" />
        </mxCell>
        <mxCell id="nqcRDhzoilnJjKWwHqof-271" value="22" style="rounded=0;whiteSpace=wrap;html=1;fontSize=8;" parent="nqcRDhzoilnJjKWwHqof-125" vertex="1">
          <mxGeometry x="20" width="10" height="10" as="geometry" />
        </mxCell>
        <mxCell id="nqcRDhzoilnJjKWwHqof-272" value="38" style="rounded=0;whiteSpace=wrap;html=1;fontSize=8;" parent="nqcRDhzoilnJjKWwHqof-125" vertex="1">
          <mxGeometry x="110" y="25" width="10" height="10" as="geometry" />
        </mxCell>
        <mxCell id="nqcRDhzoilnJjKWwHqof-273" value="18" style="rounded=0;whiteSpace=wrap;html=1;fontSize=8;" parent="nqcRDhzoilnJjKWwHqof-125" vertex="1">
          <mxGeometry y="30" width="10" height="10" as="geometry" />
        </mxCell>
        <mxCell id="nqcRDhzoilnJjKWwHqof-274" value="19" style="rounded=0;whiteSpace=wrap;html=1;fontSize=8;" parent="nqcRDhzoilnJjKWwHqof-125" vertex="1">
          <mxGeometry y="40" width="10" height="10" as="geometry" />
        </mxCell>
        <mxCell id="nqcRDhzoilnJjKWwHqof-127" value="I2C" style="edgeStyle=orthogonalEdgeStyle;rounded=0;orthogonalLoop=1;jettySize=auto;html=1;exitX=0;exitY=1;exitDx=0;exitDy=0;entryX=0.5;entryY=1;entryDx=0;entryDy=0;endArrow=block;startFill=0;startArrow=block;strokeColor=light-dark(#787878, #ededed);strokeWidth=2;align=center;verticalAlign=middle;fontFamily=Helvetica;fontSize=11;fontColor=default;labelBackgroundColor=default;endFill=0;" parent="nqcRDhzoilnJjKWwHqof-146" source="nqcRDhzoilnJjKWwHqof-273" target="nqcRDhzoilnJjKWwHqof-41" edge="1">
          <mxGeometry x="-0.8879" relative="1" as="geometry">
            <Array as="points">
              <mxPoint x="65" y="430" />
            </Array>
            <mxPoint x="377" y="432" as="sourcePoint" />
            <mxPoint x="160" y="255" as="targetPoint" />
            <mxPoint as="offset" />
          </mxGeometry>
        </mxCell>
        <mxCell id="nqcRDhzoilnJjKWwHqof-143" value="" style="group" parent="nqcRDhzoilnJjKWwHqof-146" vertex="1" connectable="0">
          <mxGeometry x="773" y="290" width="80" height="120" as="geometry" />
        </mxCell>
        <mxCell id="nqcRDhzoilnJjKWwHqof-142" value="Legend&lt;div&gt;&lt;br&gt;&lt;/div&gt;&lt;div&gt;&lt;br&gt;&lt;/div&gt;&lt;div&gt;&lt;br&gt;&lt;/div&gt;&lt;div&gt;&lt;br&gt;&lt;/div&gt;&lt;div&gt;&lt;br&gt;&lt;/div&gt;&lt;div&gt;&lt;br&gt;&lt;/div&gt;&lt;div&gt;&lt;br&gt;&lt;/div&gt;" style="rounded=0;whiteSpace=wrap;html=1;" parent="nqcRDhzoilnJjKWwHqof-143" vertex="1">
          <mxGeometry width="80" height="120" as="geometry" />
        </mxCell>
        <mxCell id="nqcRDhzoilnJjKWwHqof-133" value="&lt;font style=&quot;font-size: 8px;&quot;&gt;RF IO&lt;/font&gt;" style="ellipse;whiteSpace=wrap;html=1;aspect=fixed;fontFamily=Helvetica;fontSize=11;labelBackgroundColor=default;labelPosition=right;verticalLabelPosition=middle;align=left;verticalAlign=middle;strokeWidth=2;fillColor=#dae8fc;strokeColor=#6c8ebf;" parent="nqcRDhzoilnJjKWwHqof-143" vertex="1">
          <mxGeometry x="20" y="30" width="20" height="20" as="geometry" />
        </mxCell>
        <mxCell id="nqcRDhzoilnJjKWwHqof-136" value="&lt;font style=&quot;font-size: 8px;&quot;&gt;IF IO&lt;/font&gt;" style="ellipse;whiteSpace=wrap;html=1;aspect=fixed;fontFamily=Helvetica;fontSize=11;labelBackgroundColor=default;labelPosition=right;verticalLabelPosition=middle;align=left;verticalAlign=middle;strokeWidth=2;fillColor=#f8cecc;strokeColor=#b85450;" parent="nqcRDhzoilnJjKWwHqof-143" vertex="1">
          <mxGeometry x="20" y="60" width="20" height="20" as="geometry" />
        </mxCell>
        <mxCell id="nqcRDhzoilnJjKWwHqof-140" value="&lt;font style=&quot;font-size: 8px;&quot;&gt;RF&lt;/font&gt;" style="edgeStyle=orthogonalEdgeStyle;rounded=0;orthogonalLoop=1;jettySize=auto;html=1;exitX=1;exitY=0.5;exitDx=0;exitDy=0;endArrow=none;startFill=0;strokeWidth=2;" parent="nqcRDhzoilnJjKWwHqof-143" edge="1">
          <mxGeometry x="1" y="10" relative="1" as="geometry">
            <mxPoint x="20" y="89.92000000000007" as="sourcePoint" />
            <mxPoint x="50" y="89.92000000000007" as="targetPoint" />
            <mxPoint x="10" y="10" as="offset" />
          </mxGeometry>
        </mxCell>
        <mxCell id="nqcRDhzoilnJjKWwHqof-141" value="&lt;div&gt;&lt;font style=&quot;font-size: 8px;&quot;&gt;Digital&lt;/font&gt;&lt;/div&gt;" style="shape=connector;rounded=0;orthogonalLoop=1;jettySize=auto;html=1;strokeColor=light-dark(#787878, #ededed);align=center;verticalAlign=middle;fontFamily=Helvetica;fontSize=11;fontColor=default;labelBackgroundColor=default;startFill=0;endArrow=block;strokeWidth=2;endFill=0;" parent="nqcRDhzoilnJjKWwHqof-143" edge="1">
          <mxGeometry x="1" y="10" relative="1" as="geometry">
            <mxPoint x="20" y="109.83999999999992" as="sourcePoint" />
            <mxPoint x="51" y="109.83999999999992" as="targetPoint" />
            <mxPoint x="10" y="10" as="offset" />
          </mxGeometry>
        </mxCell>
        <mxCell id="nqcRDhzoilnJjKWwHqof-147" value="RX Attenuator" style="rounded=1;whiteSpace=wrap;html=1;fontFamily=Helvetica;fontSize=11;fontColor=default;labelBackgroundColor=default;" parent="nqcRDhzoilnJjKWwHqof-146" vertex="1">
          <mxGeometry x="210" y="100" width="80" height="40" as="geometry" />
        </mxCell>
        <mxCell id="nqcRDhzoilnJjKWwHqof-216" value="TX Attenuator" style="rounded=1;whiteSpace=wrap;html=1;fontFamily=Helvetica;fontSize=11;fontColor=default;labelBackgroundColor=default;" parent="nqcRDhzoilnJjKWwHqof-146" vertex="1">
          <mxGeometry x="583" y="225" width="80" height="40" as="geometry" />
        </mxCell>
        <mxCell id="nqcRDhzoilnJjKWwHqof-393" value="" style="group" parent="nqcRDhzoilnJjKWwHqof-146" vertex="1" connectable="0">
          <mxGeometry x="277" y="280" width="80" height="40" as="geometry" />
        </mxCell>
        <mxCell id="nqcRDhzoilnJjKWwHqof-83" value="CW amp" style="rounded=1;whiteSpace=wrap;html=1;fontFamily=Helvetica;fontSize=11;fontColor=default;labelBackgroundColor=default;" parent="nqcRDhzoilnJjKWwHqof-393" vertex="1">
          <mxGeometry width="80" height="40" as="geometry" />
        </mxCell>
        <mxCell id="nqcRDhzoilnJjKWwHqof-303" value="" style="triangle;whiteSpace=wrap;html=1;direction=north;" parent="nqcRDhzoilnJjKWwHqof-393" vertex="1">
          <mxGeometry x="37.5" y="35" width="5" height="5" as="geometry" />
        </mxCell>
        <mxCell id="nqcRDhzoilnJjKWwHqof-304" value="&lt;font style=&quot;font-size: 6px;&quot;&gt;EN&lt;/font&gt;" style="text;html=1;align=center;verticalAlign=middle;whiteSpace=wrap;rounded=0;" parent="nqcRDhzoilnJjKWwHqof-393" vertex="1">
          <mxGeometry x="42.5" y="33" width="10" as="geometry" />
        </mxCell>
        <mxCell id="nqcRDhzoilnJjKWwHqof-394" value="" style="group" parent="nqcRDhzoilnJjKWwHqof-146" vertex="1" connectable="0">
          <mxGeometry x="343" y="210" width="80" height="40" as="geometry" />
        </mxCell>
        <mxCell id="nqcRDhzoilnJjKWwHqof-79" value="Exciter" style="rounded=1;whiteSpace=wrap;html=1;fontFamily=Helvetica;fontSize=11;fontColor=default;labelBackgroundColor=default;" parent="nqcRDhzoilnJjKWwHqof-394" vertex="1">
          <mxGeometry width="80" height="40" as="geometry" />
        </mxCell>
        <mxCell id="nqcRDhzoilnJjKWwHqof-305" value="" style="triangle;whiteSpace=wrap;html=1;direction=north;" parent="nqcRDhzoilnJjKWwHqof-394" vertex="1">
          <mxGeometry x="37" y="35" width="5" height="5" as="geometry" />
        </mxCell>
        <mxCell id="nqcRDhzoilnJjKWwHqof-306" value="&lt;font style=&quot;font-size: 6px;&quot;&gt;EN&lt;/font&gt;" style="text;html=1;align=center;verticalAlign=middle;whiteSpace=wrap;rounded=0;" parent="nqcRDhzoilnJjKWwHqof-394" vertex="1">
          <mxGeometry x="42" y="33" width="10" as="geometry" />
        </mxCell>
        <mxCell id="nqcRDhzoilnJjKWwHqof-358" style="edgeStyle=orthogonalEdgeStyle;rounded=0;orthogonalLoop=1;jettySize=auto;html=1;exitX=1;exitY=0.5;exitDx=0;exitDy=0;entryX=0;entryY=0.5;entryDx=0;entryDy=0;" parent="1" source="nqcRDhzoilnJjKWwHqof-225" target="nqcRDhzoilnJjKWwHqof-357" edge="1">
          <mxGeometry relative="1" as="geometry" />
        </mxCell>
        <mxCell id="nqcRDhzoilnJjKWwHqof-225" value="uint8_t GPA_state" style="text;html=1;align=center;verticalAlign=middle;whiteSpace=wrap;rounded=0;fontFamily=Courier New;fontStyle=1;fillColor=none;strokeColor=default;" parent="1" vertex="1">
          <mxGeometry x="280" y="700" width="120" height="30" as="geometry" />
        </mxCell>
        <mxCell id="nqcRDhzoilnJjKWwHqof-360" style="edgeStyle=orthogonalEdgeStyle;rounded=0;orthogonalLoop=1;jettySize=auto;html=1;exitX=1;exitY=0.5;exitDx=0;exitDy=0;entryX=0;entryY=0.5;entryDx=0;entryDy=0;" parent="1" source="nqcRDhzoilnJjKWwHqof-234" target="nqcRDhzoilnJjKWwHqof-359" edge="1">
          <mxGeometry relative="1" as="geometry" />
        </mxCell>
        <mxCell id="nqcRDhzoilnJjKWwHqof-234" value="uint8_t GPB_state" style="text;html=1;align=center;verticalAlign=middle;whiteSpace=wrap;rounded=0;fontFamily=Courier New;fontStyle=1;strokeColor=default;" parent="1" vertex="1">
          <mxGeometry x="280" y="750" width="120" height="30" as="geometry" />
        </mxCell>
        <mxCell id="nqcRDhzoilnJjKWwHqof-235" value="" style="group" parent="1" vertex="1" connectable="0">
          <mxGeometry x="265" y="640" width="160" height="20" as="geometry" />
        </mxCell>
        <mxCell id="nqcRDhzoilnJjKWwHqof-226" value="7" style="rounded=0;whiteSpace=wrap;html=1;strokeColor=default;align=center;verticalAlign=middle;fontFamily=Helvetica;fontSize=12;fontColor=#B3B3B3;fillColor=#E6E6E6;" parent="nqcRDhzoilnJjKWwHqof-235" vertex="1">
          <mxGeometry width="20" height="20" as="geometry" />
        </mxCell>
        <mxCell id="nqcRDhzoilnJjKWwHqof-227" value="6" style="rounded=0;whiteSpace=wrap;html=1;strokeColor=default;align=center;verticalAlign=middle;fontFamily=Helvetica;fontSize=12;fontColor=#B3B3B3;fillColor=#E6E6E6;" parent="nqcRDhzoilnJjKWwHqof-235" vertex="1">
          <mxGeometry x="20" width="20" height="20" as="geometry" />
        </mxCell>
        <mxCell id="nqcRDhzoilnJjKWwHqof-228" value="5" style="rounded=0;whiteSpace=wrap;html=1;fontColor=default;fillColor=default;strokeColor=default;align=center;verticalAlign=middle;fontFamily=Helvetica;fontSize=12;" parent="nqcRDhzoilnJjKWwHqof-235" vertex="1">
          <mxGeometry x="40" width="20" height="20" as="geometry" />
        </mxCell>
        <mxCell id="nqcRDhzoilnJjKWwHqof-229" value="4" style="rounded=0;whiteSpace=wrap;html=1;" parent="nqcRDhzoilnJjKWwHqof-235" vertex="1">
          <mxGeometry x="60" width="20" height="20" as="geometry" />
        </mxCell>
        <mxCell id="nqcRDhzoilnJjKWwHqof-230" value="3" style="rounded=0;whiteSpace=wrap;html=1;" parent="nqcRDhzoilnJjKWwHqof-235" vertex="1">
          <mxGeometry x="80" width="20" height="20" as="geometry" />
        </mxCell>
        <mxCell id="nqcRDhzoilnJjKWwHqof-231" value="2" style="rounded=0;whiteSpace=wrap;html=1;" parent="nqcRDhzoilnJjKWwHqof-235" vertex="1">
          <mxGeometry x="100" width="20" height="20" as="geometry" />
        </mxCell>
        <mxCell id="nqcRDhzoilnJjKWwHqof-232" value="1" style="rounded=0;whiteSpace=wrap;html=1;" parent="nqcRDhzoilnJjKWwHqof-235" vertex="1">
          <mxGeometry x="120" width="20" height="20" as="geometry" />
        </mxCell>
        <mxCell id="nqcRDhzoilnJjKWwHqof-233" value="0" style="rounded=0;whiteSpace=wrap;html=1;" parent="nqcRDhzoilnJjKWwHqof-235" vertex="1">
          <mxGeometry x="140" width="20" height="20" as="geometry" />
        </mxCell>
        <mxCell id="nqcRDhzoilnJjKWwHqof-238" value="0.5" style="text;html=1;align=center;verticalAlign=middle;whiteSpace=wrap;rounded=0;direction=west;horizontal=0;" parent="1" vertex="1">
          <mxGeometry x="405" y="662" width="20" height="20" as="geometry" />
        </mxCell>
        <mxCell id="nqcRDhzoilnJjKWwHqof-239" value="1" style="text;html=1;align=center;verticalAlign=middle;whiteSpace=wrap;rounded=0;direction=west;horizontal=0;" parent="1" vertex="1">
          <mxGeometry x="385" y="662" width="20" height="20" as="geometry" />
        </mxCell>
        <mxCell id="nqcRDhzoilnJjKWwHqof-240" value="2" style="text;html=1;align=center;verticalAlign=middle;whiteSpace=wrap;rounded=0;direction=west;horizontal=0;" parent="1" vertex="1">
          <mxGeometry x="365" y="662" width="20" height="20" as="geometry" />
        </mxCell>
        <mxCell id="nqcRDhzoilnJjKWwHqof-241" value="4" style="text;html=1;align=center;verticalAlign=middle;whiteSpace=wrap;rounded=0;direction=west;horizontal=0;" parent="1" vertex="1">
          <mxGeometry x="345" y="662" width="20" height="20" as="geometry" />
        </mxCell>
        <mxCell id="nqcRDhzoilnJjKWwHqof-242" value="8" style="text;html=1;align=center;verticalAlign=middle;whiteSpace=wrap;rounded=0;direction=west;horizontal=0;" parent="1" vertex="1">
          <mxGeometry x="325" y="662" width="20" height="20" as="geometry" />
        </mxCell>
        <mxCell id="nqcRDhzoilnJjKWwHqof-243" value="16" style="text;html=1;align=center;verticalAlign=middle;whiteSpace=wrap;rounded=0;direction=west;horizontal=0;" parent="1" vertex="1">
          <mxGeometry x="305" y="662" width="20" height="20" as="geometry" />
        </mxCell>
        <mxCell id="nqcRDhzoilnJjKWwHqof-244" value="6 least significant bits control attenuators at the indicated dB steps" style="text;html=1;align=center;verticalAlign=middle;whiteSpace=wrap;rounded=0;fontSize=10;" parent="1" vertex="1">
          <mxGeometry x="260" y="600" width="170" height="40" as="geometry" />
        </mxCell>
        <mxCell id="nqcRDhzoilnJjKWwHqof-289" value="Attenuator control functions" style="swimlane;fontStyle=0;childLayout=stackLayout;horizontal=1;startSize=30;horizontalStack=0;resizeParent=1;resizeParentMax=0;resizeLast=0;collapsible=1;marginBottom=0;whiteSpace=wrap;html=1;" parent="1" vertex="1">
          <mxGeometry x="30" y="670" width="200" height="130" as="geometry" />
        </mxCell>
        <mxCell id="nqcRDhzoilnJjKWwHqof-290" value="SetRXAttenuation(float dB)" style="text;strokeColor=none;fillColor=none;align=left;verticalAlign=middle;spacingLeft=4;spacingRight=4;overflow=hidden;points=[[0,0.5],[1,0.5]];portConstraint=eastwest;rotatable=0;whiteSpace=wrap;html=1;fontFamily=Courier New;fontSize=10;fontStyle=1" parent="nqcRDhzoilnJjKWwHqof-289" vertex="1">
          <mxGeometry y="30" width="200" height="20" as="geometry" />
        </mxCell>
        <mxCell id="nqcRDhzoilnJjKWwHqof-292" value="&lt;span style=&quot;font-family: &amp;quot;Courier New&amp;quot;; font-size: 10px; font-weight: 700;&quot;&gt;float GetRXAttenuation()&lt;/span&gt;" style="text;strokeColor=none;fillColor=none;align=left;verticalAlign=middle;spacingLeft=4;spacingRight=4;overflow=hidden;points=[[0,0.5],[1,0.5]];portConstraint=eastwest;rotatable=0;whiteSpace=wrap;html=1;" parent="nqcRDhzoilnJjKWwHqof-289" vertex="1">
          <mxGeometry y="50" width="200" height="20" as="geometry" />
        </mxCell>
        <mxCell id="nqcRDhzoilnJjKWwHqof-293" value="&lt;span style=&quot;font-family: &amp;quot;Courier New&amp;quot;; font-size: 10px; font-weight: 700;&quot;&gt;SetTXAttenuation(float dB)&lt;/span&gt;" style="text;strokeColor=none;fillColor=none;align=left;verticalAlign=middle;spacingLeft=4;spacingRight=4;overflow=hidden;points=[[0,0.5],[1,0.5]];portConstraint=eastwest;rotatable=0;whiteSpace=wrap;html=1;" parent="nqcRDhzoilnJjKWwHqof-289" vertex="1">
          <mxGeometry y="70" width="200" height="20" as="geometry" />
        </mxCell>
        <mxCell id="nqcRDhzoilnJjKWwHqof-294" value="&lt;span style=&quot;font-family: &amp;quot;Courier New&amp;quot;; font-size: 10px; font-weight: 700;&quot;&gt;float GetTXAttenuation()&lt;/span&gt;" style="text;strokeColor=none;fillColor=none;align=left;verticalAlign=middle;spacingLeft=4;spacingRight=4;overflow=hidden;points=[[0,0.5],[1,0.5]];portConstraint=eastwest;rotatable=0;whiteSpace=wrap;html=1;" parent="nqcRDhzoilnJjKWwHqof-289" vertex="1">
          <mxGeometry y="90" width="200" height="20" as="geometry" />
        </mxCell>
        <mxCell id="nqcRDhzoilnJjKWwHqof-309" value="&lt;span style=&quot;font-family: &amp;quot;Courier New&amp;quot;; font-size: 10px; font-weight: 700;&quot;&gt;InitAttenuation()&lt;/span&gt;" style="text;strokeColor=none;fillColor=none;align=left;verticalAlign=middle;spacingLeft=4;spacingRight=4;overflow=hidden;points=[[0,0.5],[1,0.5]];portConstraint=eastwest;rotatable=0;whiteSpace=wrap;html=1;" parent="nqcRDhzoilnJjKWwHqof-289" vertex="1">
          <mxGeometry y="110" width="200" height="20" as="geometry" />
        </mxCell>
        <mxCell id="nqcRDhzoilnJjKWwHqof-299" style="rounded=0;orthogonalLoop=1;jettySize=auto;html=1;exitX=1;exitY=0.5;exitDx=0;exitDy=0;entryX=0;entryY=0.25;entryDx=0;entryDy=0;" parent="1" source="nqcRDhzoilnJjKWwHqof-290" target="nqcRDhzoilnJjKWwHqof-225" edge="1">
          <mxGeometry relative="1" as="geometry" />
        </mxCell>
        <mxCell id="nqcRDhzoilnJjKWwHqof-300" style="rounded=0;orthogonalLoop=1;jettySize=auto;html=1;exitX=0;exitY=0.75;exitDx=0;exitDy=0;entryX=1;entryY=0.5;entryDx=0;entryDy=0;" parent="1" source="nqcRDhzoilnJjKWwHqof-225" target="nqcRDhzoilnJjKWwHqof-292" edge="1">
          <mxGeometry relative="1" as="geometry" />
        </mxCell>
        <mxCell id="nqcRDhzoilnJjKWwHqof-301" style="rounded=0;orthogonalLoop=1;jettySize=auto;html=1;exitX=1;exitY=0.5;exitDx=0;exitDy=0;entryX=0;entryY=0.25;entryDx=0;entryDy=0;" parent="1" source="nqcRDhzoilnJjKWwHqof-293" target="nqcRDhzoilnJjKWwHqof-234" edge="1">
          <mxGeometry relative="1" as="geometry" />
        </mxCell>
        <mxCell id="nqcRDhzoilnJjKWwHqof-302" style="rounded=0;orthogonalLoop=1;jettySize=auto;html=1;exitX=0;exitY=0.75;exitDx=0;exitDy=0;entryX=1;entryY=0.5;entryDx=0;entryDy=0;" parent="1" source="nqcRDhzoilnJjKWwHqof-234" target="nqcRDhzoilnJjKWwHqof-294" edge="1">
          <mxGeometry relative="1" as="geometry" />
        </mxCell>
        <mxCell id="nqcRDhzoilnJjKWwHqof-311" value="" style="group" parent="1" vertex="1" connectable="0">
          <mxGeometry x="1020" y="360" width="210" height="170" as="geometry" />
        </mxCell>
        <mxCell id="nqcRDhzoilnJjKWwHqof-310" value="Teensy to RF Board Interface" style="rounded=1;whiteSpace=wrap;html=1;labelPosition=center;verticalLabelPosition=top;align=center;verticalAlign=bottom;" parent="nqcRDhzoilnJjKWwHqof-311" vertex="1">
          <mxGeometry width="210" height="170" as="geometry" />
        </mxCell>
        <mxCell id="nqcRDhzoilnJjKWwHqof-252" value="34" style="rounded=0;whiteSpace=wrap;html=1;" parent="nqcRDhzoilnJjKWwHqof-311" vertex="1">
          <mxGeometry x="90" y="60" width="20" height="20" as="geometry" />
        </mxCell>
        <mxCell id="nqcRDhzoilnJjKWwHqof-253" value="33" style="rounded=0;whiteSpace=wrap;html=1;" parent="nqcRDhzoilnJjKWwHqof-311" vertex="1">
          <mxGeometry x="90" y="40" width="20" height="20" as="geometry" />
        </mxCell>
        <mxCell id="nqcRDhzoilnJjKWwHqof-256" value="38" style="rounded=0;whiteSpace=wrap;html=1;" parent="nqcRDhzoilnJjKWwHqof-311" vertex="1">
          <mxGeometry x="90" y="80" width="20" height="20" as="geometry" />
        </mxCell>
        <mxCell id="nqcRDhzoilnJjKWwHqof-257" value="GPIO&lt;div&gt;pin&lt;/div&gt;" style="text;html=1;align=center;verticalAlign=middle;whiteSpace=wrap;rounded=0;fontFamily=Helvetica;fontStyle=1" parent="nqcRDhzoilnJjKWwHqof-311" vertex="1">
          <mxGeometry x="75" y="12" width="50" height="20" as="geometry" />
        </mxCell>
        <mxCell id="nqcRDhzoilnJjKWwHqof-258" value="22" style="rounded=0;whiteSpace=wrap;html=1;" parent="nqcRDhzoilnJjKWwHqof-311" vertex="1">
          <mxGeometry x="90" y="100" width="20" height="20" as="geometry" />
        </mxCell>
        <mxCell id="nqcRDhzoilnJjKWwHqof-260" value="CW on/off" style="text;html=1;align=left;verticalAlign=middle;whiteSpace=wrap;rounded=0;direction=west;horizontal=1;" parent="nqcRDhzoilnJjKWwHqof-311" vertex="1">
          <mxGeometry x="133.25" y="40" width="60" height="20" as="geometry" />
        </mxCell>
        <mxCell id="nqcRDhzoilnJjKWwHqof-261" value="Xmit Mode" style="text;html=1;align=left;verticalAlign=middle;whiteSpace=wrap;rounded=0;direction=west;horizontal=1;" parent="nqcRDhzoilnJjKWwHqof-311" vertex="1">
          <mxGeometry x="133.25" y="60" width="60" height="20" as="geometry" />
        </mxCell>
        <mxCell id="nqcRDhzoilnJjKWwHqof-262" value="Cal" style="text;html=1;align=left;verticalAlign=middle;whiteSpace=wrap;rounded=0;direction=west;horizontal=1;fontFamily=Helvetica;fontSize=12;fontColor=default;" parent="nqcRDhzoilnJjKWwHqof-311" vertex="1">
          <mxGeometry x="133.25" y="80" width="60" height="20" as="geometry" />
        </mxCell>
        <mxCell id="nqcRDhzoilnJjKWwHqof-263" value="RXTX" style="text;html=1;align=left;verticalAlign=middle;whiteSpace=wrap;rounded=0;direction=west;horizontal=1;" parent="nqcRDhzoilnJjKWwHqof-311" vertex="1">
          <mxGeometry x="133.25" y="100" width="60" height="20" as="geometry" />
        </mxCell>
        <mxCell id="nqcRDhzoilnJjKWwHqof-275" value="18" style="rounded=0;whiteSpace=wrap;html=1;" parent="nqcRDhzoilnJjKWwHqof-311" vertex="1">
          <mxGeometry x="90" y="120" width="20" height="20" as="geometry" />
        </mxCell>
        <mxCell id="nqcRDhzoilnJjKWwHqof-276" value="19" style="rounded=0;whiteSpace=wrap;html=1;" parent="nqcRDhzoilnJjKWwHqof-311" vertex="1">
          <mxGeometry x="90" y="140" width="20" height="20" as="geometry" />
        </mxCell>
        <mxCell id="nqcRDhzoilnJjKWwHqof-277" value="SDA" style="text;html=1;align=left;verticalAlign=middle;whiteSpace=wrap;rounded=0;direction=west;horizontal=1;" parent="nqcRDhzoilnJjKWwHqof-311" vertex="1">
          <mxGeometry x="133.25" y="120" width="60" height="20" as="geometry" />
        </mxCell>
        <mxCell id="nqcRDhzoilnJjKWwHqof-278" value="SCL" style="text;html=1;align=left;verticalAlign=middle;whiteSpace=wrap;rounded=0;direction=west;horizontal=1;" parent="nqcRDhzoilnJjKWwHqof-311" vertex="1">
          <mxGeometry x="133.25" y="140" width="60" height="20" as="geometry" />
        </mxCell>
        <mxCell id="nqcRDhzoilnJjKWwHqof-279" value="26" style="rounded=0;whiteSpace=wrap;html=1;strokeColor=default;align=center;verticalAlign=middle;fontFamily=Helvetica;fontSize=12;fontColor=#B3B3B3;fillColor=default;" parent="nqcRDhzoilnJjKWwHqof-311" vertex="1">
          <mxGeometry x="30" y="60" width="20" height="20" as="geometry" />
        </mxCell>
        <mxCell id="nqcRDhzoilnJjKWwHqof-280" value="25" style="rounded=0;whiteSpace=wrap;html=1;fontColor=#B3B3B3;" parent="nqcRDhzoilnJjKWwHqof-311" vertex="1">
          <mxGeometry x="30" y="40" width="20" height="20" as="geometry" />
        </mxCell>
        <mxCell id="nqcRDhzoilnJjKWwHqof-281" value="30" style="rounded=0;whiteSpace=wrap;html=1;strokeColor=default;align=center;verticalAlign=middle;fontFamily=Helvetica;fontSize=12;fontColor=#B3B3B3;fillColor=default;" parent="nqcRDhzoilnJjKWwHqof-311" vertex="1">
          <mxGeometry x="30" y="80" width="20" height="20" as="geometry" />
        </mxCell>
        <mxCell id="nqcRDhzoilnJjKWwHqof-282" value="44" style="rounded=0;whiteSpace=wrap;html=1;strokeColor=default;align=center;verticalAlign=middle;fontFamily=Helvetica;fontSize=12;fontColor=#B3B3B3;fillColor=default;" parent="nqcRDhzoilnJjKWwHqof-311" vertex="1">
          <mxGeometry x="30" y="100" width="20" height="20" as="geometry" />
        </mxCell>
        <mxCell id="nqcRDhzoilnJjKWwHqof-283" value="40" style="rounded=0;whiteSpace=wrap;html=1;strokeColor=default;align=center;verticalAlign=middle;fontFamily=Helvetica;fontSize=12;fontColor=#B3B3B3;fillColor=default;" parent="nqcRDhzoilnJjKWwHqof-311" vertex="1">
          <mxGeometry x="30" y="120" width="20" height="20" as="geometry" />
        </mxCell>
        <mxCell id="nqcRDhzoilnJjKWwHqof-284" value="41" style="rounded=0;whiteSpace=wrap;html=1;strokeColor=default;align=center;verticalAlign=middle;fontFamily=Helvetica;fontSize=12;fontColor=#B3B3B3;fillColor=default;" parent="nqcRDhzoilnJjKWwHqof-311" vertex="1">
          <mxGeometry x="30" y="140" width="20" height="20" as="geometry" />
        </mxCell>
        <mxCell id="nqcRDhzoilnJjKWwHqof-285" value="Physical&lt;div&gt;pin&lt;/div&gt;" style="text;html=1;align=center;verticalAlign=middle;whiteSpace=wrap;rounded=0;fontFamily=Helvetica;fontStyle=1" parent="nqcRDhzoilnJjKWwHqof-311" vertex="1">
          <mxGeometry x="15" y="12" width="50" height="20" as="geometry" />
        </mxCell>
        <mxCell id="nqcRDhzoilnJjKWwHqof-286" value="Function" style="text;html=1;align=left;verticalAlign=middle;whiteSpace=wrap;rounded=0;fontFamily=Helvetica;fontStyle=1" parent="nqcRDhzoilnJjKWwHqof-311" vertex="1">
          <mxGeometry x="130" y="20" width="70" height="20" as="geometry" />
        </mxCell>
        <mxCell id="nqcRDhzoilnJjKWwHqof-324" style="edgeStyle=orthogonalEdgeStyle;rounded=0;orthogonalLoop=1;jettySize=auto;html=1;exitX=1;exitY=0.5;exitDx=0;exitDy=0;entryX=0;entryY=0.25;entryDx=0;entryDy=0;" parent="1" source="nqcRDhzoilnJjKWwHqof-315" target="nqcRDhzoilnJjKWwHqof-313" edge="1">
          <mxGeometry relative="1" as="geometry">
            <Array as="points">
              <mxPoint x="430" y="835" />
              <mxPoint x="430" y="845" />
            </Array>
          </mxGeometry>
        </mxCell>
        <mxCell id="nqcRDhzoilnJjKWwHqof-315" value="int64_t frequencySSB_Hz" style="text;html=1;align=center;verticalAlign=middle;whiteSpace=wrap;rounded=0;fontFamily=Courier New;fontStyle=1;strokeColor=default;" parent="1" vertex="1">
          <mxGeometry x="280" y="820" width="140" height="30" as="geometry" />
        </mxCell>
        <mxCell id="nqcRDhzoilnJjKWwHqof-320" value="bool clockEnableSSB" style="text;html=1;align=center;verticalAlign=middle;whiteSpace=wrap;rounded=0;fontFamily=Courier New;fontStyle=1;strokeColor=default;" parent="1" vertex="1">
          <mxGeometry x="280" y="900" width="120" height="30" as="geometry" />
        </mxCell>
        <mxCell id="nqcRDhzoilnJjKWwHqof-323" style="edgeStyle=orthogonalEdgeStyle;rounded=0;orthogonalLoop=1;jettySize=auto;html=1;exitX=1;exitY=0.5;exitDx=0;exitDy=0;entryX=0;entryY=0.5;entryDx=0;entryDy=0;" parent="1" source="nqcRDhzoilnJjKWwHqof-320" target="nqcRDhzoilnJjKWwHqof-319" edge="1">
          <mxGeometry relative="1" as="geometry" />
        </mxCell>
        <mxCell id="nqcRDhzoilnJjKWwHqof-330" style="rounded=0;orthogonalLoop=1;jettySize=auto;html=1;exitX=1;exitY=0.5;exitDx=0;exitDy=0;entryX=0;entryY=0.75;entryDx=0;entryDy=0;" parent="1" source="nqcRDhzoilnJjKWwHqof-329" target="nqcRDhzoilnJjKWwHqof-313" edge="1">
          <mxGeometry relative="1" as="geometry" />
        </mxCell>
        <mxCell id="nqcRDhzoilnJjKWwHqof-329" value="uint8_t driveCurrentSSB_mA" style="text;html=1;align=center;verticalAlign=middle;whiteSpace=wrap;rounded=0;fontFamily=Courier New;fontStyle=1;strokeColor=default;" parent="1" vertex="1">
          <mxGeometry x="280" y="860" width="140" height="30" as="geometry" />
        </mxCell>
        <mxCell id="nqcRDhzoilnJjKWwHqof-331" value="int64_t frequencyCW_Hz" style="text;html=1;align=center;verticalAlign=middle;whiteSpace=wrap;rounded=0;fontFamily=Courier New;fontStyle=1;strokeColor=default;" parent="1" vertex="1">
          <mxGeometry x="280" y="980" width="140" height="30" as="geometry" />
        </mxCell>
        <mxCell id="nqcRDhzoilnJjKWwHqof-336" style="rounded=0;orthogonalLoop=1;jettySize=auto;html=1;exitX=1;exitY=0.5;exitDx=0;exitDy=0;entryX=0;entryY=0.75;entryDx=0;entryDy=0;" parent="1" source="nqcRDhzoilnJjKWwHqof-332" target="nqcRDhzoilnJjKWwHqof-325" edge="1">
          <mxGeometry relative="1" as="geometry" />
        </mxCell>
        <mxCell id="nqcRDhzoilnJjKWwHqof-332" value="uint8_t driveCurrentCW_mA" style="text;html=1;align=center;verticalAlign=middle;whiteSpace=wrap;rounded=0;fontFamily=Courier New;fontStyle=1;strokeColor=default;" parent="1" vertex="1">
          <mxGeometry x="280" y="1020" width="140" height="30" as="geometry" />
        </mxCell>
        <mxCell id="nqcRDhzoilnJjKWwHqof-333" value="bool clockEnableCW" style="text;html=1;align=center;verticalAlign=middle;whiteSpace=wrap;rounded=0;fontFamily=Courier New;fontStyle=1;strokeColor=default;" parent="1" vertex="1">
          <mxGeometry x="280" y="1060" width="120" height="30" as="geometry" />
        </mxCell>
        <mxCell id="nqcRDhzoilnJjKWwHqof-334" style="edgeStyle=orthogonalEdgeStyle;rounded=0;orthogonalLoop=1;jettySize=auto;html=1;exitX=1;exitY=0.5;exitDx=0;exitDy=0;entryX=0;entryY=0.5;entryDx=0;entryDy=0;" parent="1" source="nqcRDhzoilnJjKWwHqof-333" target="nqcRDhzoilnJjKWwHqof-327" edge="1">
          <mxGeometry relative="1" as="geometry" />
        </mxCell>
        <mxCell id="nqcRDhzoilnJjKWwHqof-335" style="edgeStyle=orthogonalEdgeStyle;rounded=0;orthogonalLoop=1;jettySize=auto;html=1;exitX=1;exitY=0.5;exitDx=0;exitDy=0;entryX=0;entryY=0.25;entryDx=0;entryDy=0;" parent="1" source="nqcRDhzoilnJjKWwHqof-331" target="nqcRDhzoilnJjKWwHqof-325" edge="1">
          <mxGeometry relative="1" as="geometry">
            <Array as="points">
              <mxPoint x="430" y="995" />
              <mxPoint x="430" y="1005" />
            </Array>
          </mxGeometry>
        </mxCell>
        <mxCell id="nqcRDhzoilnJjKWwHqof-337" value="SSB VFO Control Functions" style="swimlane;fontStyle=0;childLayout=stackLayout;horizontal=1;startSize=30;horizontalStack=0;resizeParent=1;resizeParentMax=0;resizeLast=0;collapsible=1;marginBottom=0;whiteSpace=wrap;html=1;" parent="1" vertex="1">
          <mxGeometry x="30" y="820" width="200" height="130" as="geometry" />
        </mxCell>
        <mxCell id="nqcRDhzoilnJjKWwHqof-338" value="SetSSBVFOFrequency(int Hz)" style="text;strokeColor=none;fillColor=none;align=left;verticalAlign=middle;spacingLeft=4;spacingRight=4;overflow=hidden;points=[[0,0.5],[1,0.5]];portConstraint=eastwest;rotatable=0;whiteSpace=wrap;html=1;fontFamily=Courier New;fontSize=10;fontStyle=1" parent="nqcRDhzoilnJjKWwHqof-337" vertex="1">
          <mxGeometry y="30" width="200" height="20" as="geometry" />
        </mxCell>
        <mxCell id="nqcRDhzoilnJjKWwHqof-339" value="&lt;span style=&quot;font-family: &amp;quot;Courier New&amp;quot;; font-size: 10px; font-weight: 700;&quot;&gt;SetSSBVFOPower(int)&lt;/span&gt;" style="text;strokeColor=none;fillColor=none;align=left;verticalAlign=middle;spacingLeft=4;spacingRight=4;overflow=hidden;points=[[0,0.5],[1,0.5]];portConstraint=eastwest;rotatable=0;whiteSpace=wrap;html=1;" parent="nqcRDhzoilnJjKWwHqof-337" vertex="1">
          <mxGeometry y="50" width="200" height="20" as="geometry" />
        </mxCell>
        <mxCell id="nqcRDhzoilnJjKWwHqof-340" value="&lt;span style=&quot;font-family: &amp;quot;Courier New&amp;quot;; font-size: 10px; font-weight: 700;&quot;&gt;EnableSSBVFOOutput()&lt;/span&gt;" style="text;strokeColor=none;fillColor=none;align=left;verticalAlign=middle;spacingLeft=4;spacingRight=4;overflow=hidden;points=[[0,0.5],[1,0.5]];portConstraint=eastwest;rotatable=0;whiteSpace=wrap;html=1;" parent="nqcRDhzoilnJjKWwHqof-337" vertex="1">
          <mxGeometry y="70" width="200" height="20" as="geometry" />
        </mxCell>
        <mxCell id="nqcRDhzoilnJjKWwHqof-341" value="&lt;font face=&quot;Courier New&quot;&gt;&lt;span style=&quot;font-size: 10px;&quot;&gt;&lt;b&gt;DisableSSBVFOOutput()&lt;/b&gt;&lt;/span&gt;&lt;/font&gt;" style="text;strokeColor=none;fillColor=none;align=left;verticalAlign=middle;spacingLeft=4;spacingRight=4;overflow=hidden;points=[[0,0.5],[1,0.5]];portConstraint=eastwest;rotatable=0;whiteSpace=wrap;html=1;" parent="nqcRDhzoilnJjKWwHqof-337" vertex="1">
          <mxGeometry y="90" width="200" height="20" as="geometry" />
        </mxCell>
        <mxCell id="nqcRDhzoilnJjKWwHqof-342" value="&lt;span style=&quot;font-family: &amp;quot;Courier New&amp;quot;; font-size: 10px; font-weight: 700;&quot;&gt;InitSSBVFO()&lt;/span&gt;" style="text;strokeColor=none;fillColor=none;align=left;verticalAlign=middle;spacingLeft=4;spacingRight=4;overflow=hidden;points=[[0,0.5],[1,0.5]];portConstraint=eastwest;rotatable=0;whiteSpace=wrap;html=1;" parent="nqcRDhzoilnJjKWwHqof-337" vertex="1">
          <mxGeometry y="110" width="200" height="20" as="geometry" />
        </mxCell>
        <mxCell id="nqcRDhzoilnJjKWwHqof-343" value="CW VFO Control Functions" style="swimlane;fontStyle=0;childLayout=stackLayout;horizontal=1;startSize=30;horizontalStack=0;resizeParent=1;resizeParentMax=0;resizeLast=0;collapsible=1;marginBottom=0;whiteSpace=wrap;html=1;" parent="1" vertex="1">
          <mxGeometry x="30" y="975" width="200" height="170" as="geometry" />
        </mxCell>
        <mxCell id="nqcRDhzoilnJjKWwHqof-344" value="SetCWVFOFrequency(int Hz)" style="text;strokeColor=none;fillColor=none;align=left;verticalAlign=middle;spacingLeft=4;spacingRight=4;overflow=hidden;points=[[0,0.5],[1,0.5]];portConstraint=eastwest;rotatable=0;whiteSpace=wrap;html=1;fontFamily=Courier New;fontSize=10;fontStyle=1" parent="nqcRDhzoilnJjKWwHqof-343" vertex="1">
          <mxGeometry y="30" width="200" height="20" as="geometry" />
        </mxCell>
        <mxCell id="nqcRDhzoilnJjKWwHqof-345" value="&lt;span style=&quot;font-family: &amp;quot;Courier New&amp;quot;; font-size: 10px; font-weight: 700;&quot;&gt;SetCWVFOPower(int)&lt;/span&gt;" style="text;strokeColor=none;fillColor=none;align=left;verticalAlign=middle;spacingLeft=4;spacingRight=4;overflow=hidden;points=[[0,0.5],[1,0.5]];portConstraint=eastwest;rotatable=0;whiteSpace=wrap;html=1;" parent="nqcRDhzoilnJjKWwHqof-343" vertex="1">
          <mxGeometry y="50" width="200" height="20" as="geometry" />
        </mxCell>
        <mxCell id="nqcRDhzoilnJjKWwHqof-346" value="&lt;span style=&quot;font-family: &amp;quot;Courier New&amp;quot;; font-size: 10px; font-weight: 700;&quot;&gt;EnableCWVFOOutput()&lt;/span&gt;" style="text;strokeColor=none;fillColor=none;align=left;verticalAlign=middle;spacingLeft=4;spacingRight=4;overflow=hidden;points=[[0,0.5],[1,0.5]];portConstraint=eastwest;rotatable=0;whiteSpace=wrap;html=1;" parent="nqcRDhzoilnJjKWwHqof-343" vertex="1">
          <mxGeometry y="70" width="200" height="20" as="geometry" />
        </mxCell>
        <mxCell id="nqcRDhzoilnJjKWwHqof-347" value="&lt;font face=&quot;Courier New&quot;&gt;&lt;span style=&quot;font-size: 10px;&quot;&gt;&lt;b&gt;DisableCWVFOOutput()&lt;/b&gt;&lt;/span&gt;&lt;/font&gt;" style="text;strokeColor=none;fillColor=none;align=left;verticalAlign=middle;spacingLeft=4;spacingRight=4;overflow=hidden;points=[[0,0.5],[1,0.5]];portConstraint=eastwest;rotatable=0;whiteSpace=wrap;html=1;" parent="nqcRDhzoilnJjKWwHqof-343" vertex="1">
          <mxGeometry y="90" width="200" height="20" as="geometry" />
        </mxCell>
        <mxCell id="nqcRDhzoilnJjKWwHqof-348" value="&lt;span style=&quot;font-family: &amp;quot;Courier New&amp;quot;; font-size: 10px; font-weight: 700;&quot;&gt;InitCWVFO()&lt;/span&gt;" style="text;strokeColor=none;fillColor=none;align=left;verticalAlign=middle;spacingLeft=4;spacingRight=4;overflow=hidden;points=[[0,0.5],[1,0.5]];portConstraint=eastwest;rotatable=0;whiteSpace=wrap;html=1;" parent="nqcRDhzoilnJjKWwHqof-343" vertex="1">
          <mxGeometry y="110" width="200" height="20" as="geometry" />
        </mxCell>
        <mxCell id="nqcRDhzoilnJjKWwHqof-369" value="&lt;span style=&quot;font-family: &amp;quot;Courier New&amp;quot;; font-size: 10px; font-weight: 700;&quot;&gt;CWOn()&lt;/span&gt;" style="text;strokeColor=none;fillColor=none;align=left;verticalAlign=middle;spacingLeft=4;spacingRight=4;overflow=hidden;points=[[0,0.5],[1,0.5]];portConstraint=eastwest;rotatable=0;whiteSpace=wrap;html=1;" parent="nqcRDhzoilnJjKWwHqof-343" vertex="1">
          <mxGeometry y="130" width="200" height="20" as="geometry" />
        </mxCell>
        <mxCell id="nqcRDhzoilnJjKWwHqof-370" value="&lt;span style=&quot;font-family: &amp;quot;Courier New&amp;quot;; font-size: 10px; font-weight: 700;&quot;&gt;CWOff()&lt;/span&gt;" style="text;strokeColor=none;fillColor=none;align=left;verticalAlign=middle;spacingLeft=4;spacingRight=4;overflow=hidden;points=[[0,0.5],[1,0.5]];portConstraint=eastwest;rotatable=0;whiteSpace=wrap;html=1;" parent="nqcRDhzoilnJjKWwHqof-343" vertex="1">
          <mxGeometry y="150" width="200" height="20" as="geometry" />
        </mxCell>
        <mxCell id="nqcRDhzoilnJjKWwHqof-349" style="rounded=0;orthogonalLoop=1;jettySize=auto;html=1;exitX=1;exitY=0.5;exitDx=0;exitDy=0;entryX=0;entryY=0.5;entryDx=0;entryDy=0;" parent="1" source="nqcRDhzoilnJjKWwHqof-338" target="nqcRDhzoilnJjKWwHqof-315" edge="1">
          <mxGeometry relative="1" as="geometry" />
        </mxCell>
        <mxCell id="nqcRDhzoilnJjKWwHqof-350" style="rounded=0;orthogonalLoop=1;jettySize=auto;html=1;exitX=1;exitY=0.5;exitDx=0;exitDy=0;entryX=0;entryY=0.5;entryDx=0;entryDy=0;" parent="1" source="nqcRDhzoilnJjKWwHqof-339" target="nqcRDhzoilnJjKWwHqof-329" edge="1">
          <mxGeometry relative="1" as="geometry" />
        </mxCell>
        <mxCell id="nqcRDhzoilnJjKWwHqof-351" value="HI" style="rounded=0;orthogonalLoop=1;jettySize=auto;html=1;exitX=1;exitY=0.5;exitDx=0;exitDy=0;entryX=0;entryY=0.25;entryDx=0;entryDy=0;" parent="1" source="nqcRDhzoilnJjKWwHqof-340" target="nqcRDhzoilnJjKWwHqof-320" edge="1">
          <mxGeometry relative="1" as="geometry" />
        </mxCell>
        <mxCell id="nqcRDhzoilnJjKWwHqof-352" value="LO" style="rounded=0;orthogonalLoop=1;jettySize=auto;html=1;exitX=1;exitY=0.5;exitDx=0;exitDy=0;entryX=0;entryY=0.75;entryDx=0;entryDy=0;" parent="1" source="nqcRDhzoilnJjKWwHqof-341" target="nqcRDhzoilnJjKWwHqof-320" edge="1">
          <mxGeometry relative="1" as="geometry" />
        </mxCell>
        <mxCell id="nqcRDhzoilnJjKWwHqof-353" style="rounded=0;orthogonalLoop=1;jettySize=auto;html=1;exitX=1;exitY=0.5;exitDx=0;exitDy=0;entryX=0;entryY=0.5;entryDx=0;entryDy=0;" parent="1" source="nqcRDhzoilnJjKWwHqof-344" target="nqcRDhzoilnJjKWwHqof-331" edge="1">
          <mxGeometry relative="1" as="geometry" />
        </mxCell>
        <mxCell id="nqcRDhzoilnJjKWwHqof-354" style="rounded=0;orthogonalLoop=1;jettySize=auto;html=1;exitX=1;exitY=0.5;exitDx=0;exitDy=0;entryX=0;entryY=0.5;entryDx=0;entryDy=0;" parent="1" source="nqcRDhzoilnJjKWwHqof-345" target="nqcRDhzoilnJjKWwHqof-332" edge="1">
          <mxGeometry relative="1" as="geometry" />
        </mxCell>
        <mxCell id="nqcRDhzoilnJjKWwHqof-355" value="HI" style="rounded=0;orthogonalLoop=1;jettySize=auto;html=1;exitX=1;exitY=0.5;exitDx=0;exitDy=0;entryX=0;entryY=0.25;entryDx=0;entryDy=0;" parent="1" source="nqcRDhzoilnJjKWwHqof-346" target="nqcRDhzoilnJjKWwHqof-333" edge="1">
          <mxGeometry relative="1" as="geometry" />
        </mxCell>
        <mxCell id="nqcRDhzoilnJjKWwHqof-356" value="LO" style="rounded=0;orthogonalLoop=1;jettySize=auto;html=1;exitX=1;exitY=0.5;exitDx=0;exitDy=0;entryX=0;entryY=0.75;entryDx=0;entryDy=0;" parent="1" source="nqcRDhzoilnJjKWwHqof-347" target="nqcRDhzoilnJjKWwHqof-333" edge="1">
          <mxGeometry relative="1" as="geometry" />
        </mxCell>
        <mxCell id="nqcRDhzoilnJjKWwHqof-357" value="RX Attenuator" style="rounded=1;whiteSpace=wrap;html=1;fontFamily=Helvetica;fontSize=11;fontColor=default;labelBackgroundColor=default;" parent="1" vertex="1">
          <mxGeometry x="470" y="695" width="110" height="40" as="geometry" />
        </mxCell>
        <mxCell id="nqcRDhzoilnJjKWwHqof-359" value="TX Attenuator" style="rounded=1;whiteSpace=wrap;html=1;fontFamily=Helvetica;fontSize=11;fontColor=default;labelBackgroundColor=default;" parent="1" vertex="1">
          <mxGeometry x="470" y="745" width="110" height="40" as="geometry" />
        </mxCell>
        <mxCell id="nqcRDhzoilnJjKWwHqof-362" value="" style="group" parent="1" vertex="1" connectable="0">
          <mxGeometry x="460" y="830" width="120" height="60" as="geometry" />
        </mxCell>
        <mxCell id="nqcRDhzoilnJjKWwHqof-313" value="SSB VFO" style="rounded=1;whiteSpace=wrap;html=1;fontFamily=Helvetica;fontSize=11;fontColor=default;labelBackgroundColor=default;labelPosition=center;verticalLabelPosition=middle;align=center;verticalAlign=middle;" parent="nqcRDhzoilnJjKWwHqof-362" vertex="1">
          <mxGeometry width="120" height="60" as="geometry" />
        </mxCell>
        <mxCell id="nqcRDhzoilnJjKWwHqof-318" value="&lt;font style=&quot;font-size: 6px;&quot;&gt;EN&lt;/font&gt;" style="text;html=1;align=center;verticalAlign=middle;whiteSpace=wrap;rounded=0;" parent="nqcRDhzoilnJjKWwHqof-362" vertex="1">
          <mxGeometry x="65" y="53" width="10" as="geometry" />
        </mxCell>
        <mxCell id="nqcRDhzoilnJjKWwHqof-319" value="" style="triangle;whiteSpace=wrap;html=1;direction=north;" parent="nqcRDhzoilnJjKWwHqof-362" vertex="1">
          <mxGeometry x="60" y="55" width="5" height="5" as="geometry" />
        </mxCell>
        <mxCell id="nqcRDhzoilnJjKWwHqof-321" value="" style="endArrow=none;html=1;rounded=0;" parent="nqcRDhzoilnJjKWwHqof-362" edge="1">
          <mxGeometry width="50" height="50" relative="1" as="geometry">
            <mxPoint x="107" y="30" as="sourcePoint" />
            <mxPoint x="117" y="30" as="targetPoint" />
            <Array as="points">
              <mxPoint x="107" y="20" />
              <mxPoint x="112" y="20" />
              <mxPoint x="112" y="40" />
              <mxPoint x="117" y="40" />
            </Array>
          </mxGeometry>
        </mxCell>
        <mxCell id="nqcRDhzoilnJjKWwHqof-363" value="" style="group" parent="1" vertex="1" connectable="0">
          <mxGeometry x="460" y="990" width="120" height="60" as="geometry" />
        </mxCell>
        <mxCell id="nqcRDhzoilnJjKWwHqof-325" value="CW VFO" style="rounded=1;whiteSpace=wrap;html=1;fontFamily=Helvetica;fontSize=11;fontColor=default;labelBackgroundColor=default;labelPosition=center;verticalLabelPosition=middle;align=center;verticalAlign=middle;" parent="nqcRDhzoilnJjKWwHqof-363" vertex="1">
          <mxGeometry width="120" height="60" as="geometry" />
        </mxCell>
        <mxCell id="nqcRDhzoilnJjKWwHqof-326" value="&lt;font style=&quot;font-size: 6px;&quot;&gt;EN&lt;/font&gt;" style="text;html=1;align=center;verticalAlign=middle;whiteSpace=wrap;rounded=0;" parent="nqcRDhzoilnJjKWwHqof-363" vertex="1">
          <mxGeometry x="65" y="53" width="10" as="geometry" />
        </mxCell>
        <mxCell id="nqcRDhzoilnJjKWwHqof-327" value="" style="triangle;whiteSpace=wrap;html=1;direction=north;" parent="nqcRDhzoilnJjKWwHqof-363" vertex="1">
          <mxGeometry x="60" y="55" width="5" height="5" as="geometry" />
        </mxCell>
        <mxCell id="nqcRDhzoilnJjKWwHqof-328" value="" style="endArrow=none;html=1;rounded=0;" parent="nqcRDhzoilnJjKWwHqof-363" edge="1">
          <mxGeometry width="50" height="50" relative="1" as="geometry">
            <mxPoint x="107" y="30" as="sourcePoint" />
            <mxPoint x="117" y="30" as="targetPoint" />
            <Array as="points">
              <mxPoint x="107" y="20" />
              <mxPoint x="112" y="20" />
              <mxPoint x="112" y="40" />
              <mxPoint x="117" y="40" />
            </Array>
          </mxGeometry>
        </mxCell>
        <mxCell id="nqcRDhzoilnJjKWwHqof-365" value="" style="triangle;whiteSpace=wrap;html=1;direction=north;" parent="1" vertex="1">
          <mxGeometry x="647.5" y="1035" width="5" height="5" as="geometry" />
        </mxCell>
        <mxCell id="nqcRDhzoilnJjKWwHqof-366" value="&lt;font style=&quot;font-size: 6px;&quot;&gt;EN&lt;/font&gt;" style="text;html=1;align=center;verticalAlign=middle;whiteSpace=wrap;rounded=0;" parent="1" vertex="1">
          <mxGeometry x="652.5" y="1033" width="10" as="geometry" />
        </mxCell>
        <mxCell id="nqcRDhzoilnJjKWwHqof-374" style="edgeStyle=orthogonalEdgeStyle;rounded=0;orthogonalLoop=1;jettySize=auto;html=1;exitX=1;exitY=0.5;exitDx=0;exitDy=0;entryX=0;entryY=0.5;entryDx=0;entryDy=0;" parent="1" source="nqcRDhzoilnJjKWwHqof-371" target="nqcRDhzoilnJjKWwHqof-365" edge="1">
          <mxGeometry relative="1" as="geometry" />
        </mxCell>
        <mxCell id="nqcRDhzoilnJjKWwHqof-371" value="bool cwState" style="text;html=1;align=center;verticalAlign=middle;whiteSpace=wrap;rounded=0;fontFamily=Courier New;fontStyle=1;strokeColor=default;" parent="1" vertex="1">
          <mxGeometry x="280" y="1115" width="100" height="30" as="geometry" />
        </mxCell>
        <mxCell id="nqcRDhzoilnJjKWwHqof-372" style="edgeStyle=orthogonalEdgeStyle;rounded=0;orthogonalLoop=1;jettySize=auto;html=1;exitX=1;exitY=0.5;exitDx=0;exitDy=0;entryX=0;entryY=0.5;entryDx=0;entryDy=0;strokeColor=default;strokeWidth=2;align=center;verticalAlign=middle;fontFamily=Helvetica;fontSize=11;fontColor=default;labelBackgroundColor=default;startFill=0;endArrow=none;" parent="1" source="nqcRDhzoilnJjKWwHqof-325" target="nqcRDhzoilnJjKWwHqof-367" edge="1">
          <mxGeometry relative="1" as="geometry" />
        </mxCell>
        <mxCell id="nqcRDhzoilnJjKWwHqof-375" value="HI" style="rounded=0;orthogonalLoop=1;jettySize=auto;html=1;exitX=1;exitY=0.5;exitDx=0;exitDy=0;entryX=0;entryY=0.25;entryDx=0;entryDy=0;" parent="1" source="nqcRDhzoilnJjKWwHqof-369" target="nqcRDhzoilnJjKWwHqof-371" edge="1">
          <mxGeometry relative="1" as="geometry" />
        </mxCell>
        <mxCell id="nqcRDhzoilnJjKWwHqof-376" value="LO" style="rounded=0;orthogonalLoop=1;jettySize=auto;html=1;exitX=1;exitY=0.5;exitDx=0;exitDy=0;entryX=0;entryY=0.75;entryDx=0;entryDy=0;" parent="1" source="nqcRDhzoilnJjKWwHqof-370" target="nqcRDhzoilnJjKWwHqof-371" edge="1">
          <mxGeometry relative="1" as="geometry" />
        </mxCell>
        <mxCell id="nqcRDhzoilnJjKWwHqof-395" value="" style="group" parent="1" vertex="1" connectable="0">
          <mxGeometry x="470" y="1400" width="80" height="40" as="geometry" />
        </mxCell>
        <mxCell id="nqcRDhzoilnJjKWwHqof-396" value="Exciter" style="rounded=1;whiteSpace=wrap;html=1;fontFamily=Helvetica;fontSize=11;fontColor=default;labelBackgroundColor=default;" parent="nqcRDhzoilnJjKWwHqof-395" vertex="1">
          <mxGeometry width="80" height="40" as="geometry" />
        </mxCell>
        <mxCell id="nqcRDhzoilnJjKWwHqof-397" value="" style="triangle;whiteSpace=wrap;html=1;direction=north;" parent="nqcRDhzoilnJjKWwHqof-395" vertex="1">
          <mxGeometry x="37" y="35" width="5" height="5" as="geometry" />
        </mxCell>
        <mxCell id="nqcRDhzoilnJjKWwHqof-398" value="&lt;font style=&quot;font-size: 6px;&quot;&gt;EN&lt;/font&gt;" style="text;html=1;align=center;verticalAlign=middle;whiteSpace=wrap;rounded=0;" parent="nqcRDhzoilnJjKWwHqof-395" vertex="1">
          <mxGeometry x="42" y="33" width="10" as="geometry" />
        </mxCell>
        <mxCell id="nqcRDhzoilnJjKWwHqof-400" value="HI=TX&lt;div&gt;LO=RX&lt;/div&gt;" style="edgeStyle=orthogonalEdgeStyle;rounded=0;orthogonalLoop=1;jettySize=auto;html=1;exitX=1;exitY=0.5;exitDx=0;exitDy=0;entryX=0;entryY=0.5;entryDx=0;entryDy=0;" parent="1" source="nqcRDhzoilnJjKWwHqof-399" target="nqcRDhzoilnJjKWwHqof-397" edge="1">
          <mxGeometry relative="1" as="geometry" />
        </mxCell>
        <mxCell id="nqcRDhzoilnJjKWwHqof-399" value="bool rxtxState" style="text;html=1;align=center;verticalAlign=middle;whiteSpace=wrap;rounded=0;fontFamily=Courier New;fontStyle=1;strokeColor=default;" parent="1" vertex="1">
          <mxGeometry x="280" y="1450" width="100" height="30" as="geometry" />
        </mxCell>
        <mxCell id="nqcRDhzoilnJjKWwHqof-401" value="RX/TX Control" style="swimlane;fontStyle=0;childLayout=stackLayout;horizontal=1;startSize=30;horizontalStack=0;resizeParent=1;resizeParentMax=0;resizeLast=0;collapsible=1;marginBottom=0;whiteSpace=wrap;html=1;" parent="1" vertex="1">
          <mxGeometry x="30" y="1410" width="200" height="90" as="geometry" />
        </mxCell>
        <mxCell id="nqcRDhzoilnJjKWwHqof-402" value="SelectTXMode()" style="text;strokeColor=none;fillColor=none;align=left;verticalAlign=middle;spacingLeft=4;spacingRight=4;overflow=hidden;points=[[0,0.5],[1,0.5]];portConstraint=eastwest;rotatable=0;whiteSpace=wrap;html=1;fontFamily=Courier New;fontSize=10;fontStyle=1" parent="nqcRDhzoilnJjKWwHqof-401" vertex="1">
          <mxGeometry y="30" width="200" height="20" as="geometry" />
        </mxCell>
        <mxCell id="nqcRDhzoilnJjKWwHqof-403" value="&lt;span style=&quot;font-family: &amp;quot;Courier New&amp;quot;; font-size: 10px; font-weight: 700;&quot;&gt;SelectRXMode()&lt;/span&gt;" style="text;strokeColor=none;fillColor=none;align=left;verticalAlign=middle;spacingLeft=4;spacingRight=4;overflow=hidden;points=[[0,0.5],[1,0.5]];portConstraint=eastwest;rotatable=0;whiteSpace=wrap;html=1;" parent="nqcRDhzoilnJjKWwHqof-401" vertex="1">
          <mxGeometry y="50" width="200" height="20" as="geometry" />
        </mxCell>
        <mxCell id="nqcRDhzoilnJjKWwHqof-408" value="&lt;span style=&quot;font-family: &amp;quot;Courier New&amp;quot;; font-size: 10px; font-weight: 700;&quot;&gt;InitRXTX()&lt;/span&gt;" style="text;strokeColor=none;fillColor=none;align=left;verticalAlign=middle;spacingLeft=4;spacingRight=4;overflow=hidden;points=[[0,0.5],[1,0.5]];portConstraint=eastwest;rotatable=0;whiteSpace=wrap;html=1;" parent="nqcRDhzoilnJjKWwHqof-401" vertex="1">
          <mxGeometry y="70" width="200" height="20" as="geometry" />
        </mxCell>
        <mxCell id="nqcRDhzoilnJjKWwHqof-409" value="HI" style="rounded=0;orthogonalLoop=1;jettySize=auto;html=1;exitX=1;exitY=0.5;exitDx=0;exitDy=0;entryX=0;entryY=0.25;entryDx=0;entryDy=0;" parent="1" source="nqcRDhzoilnJjKWwHqof-402" target="nqcRDhzoilnJjKWwHqof-399" edge="1">
          <mxGeometry relative="1" as="geometry" />
        </mxCell>
        <mxCell id="nqcRDhzoilnJjKWwHqof-410" value="LO" style="rounded=0;orthogonalLoop=1;jettySize=auto;html=1;exitX=1;exitY=0.5;exitDx=0;exitDy=0;entryX=0;entryY=0.75;entryDx=0;entryDy=0;" parent="1" source="nqcRDhzoilnJjKWwHqof-403" target="nqcRDhzoilnJjKWwHqof-399" edge="1">
          <mxGeometry relative="1" as="geometry" />
        </mxCell>
        <mxCell id="nqcRDhzoilnJjKWwHqof-411" value="Transmit Modulation Control" style="swimlane;fontStyle=0;childLayout=stackLayout;horizontal=1;startSize=30;horizontalStack=0;resizeParent=1;resizeParentMax=0;resizeLast=0;collapsible=1;marginBottom=0;whiteSpace=wrap;html=1;" parent="1" vertex="1">
          <mxGeometry x="30" y="1170" width="200" height="90" as="geometry" />
        </mxCell>
        <mxCell id="nqcRDhzoilnJjKWwHqof-412" value="SelectTXSSBModulation()" style="text;strokeColor=none;fillColor=none;align=left;verticalAlign=middle;spacingLeft=4;spacingRight=4;overflow=hidden;points=[[0,0.5],[1,0.5]];portConstraint=eastwest;rotatable=0;whiteSpace=wrap;html=1;fontFamily=Courier New;fontSize=10;fontStyle=1" parent="nqcRDhzoilnJjKWwHqof-411" vertex="1">
          <mxGeometry y="30" width="200" height="20" as="geometry" />
        </mxCell>
        <mxCell id="nqcRDhzoilnJjKWwHqof-413" value="&lt;span style=&quot;font-family: &amp;quot;Courier New&amp;quot;; font-size: 10px; font-weight: 700;&quot;&gt;SelectTXCWModulation()&lt;/span&gt;" style="text;strokeColor=none;fillColor=none;align=left;verticalAlign=middle;spacingLeft=4;spacingRight=4;overflow=hidden;points=[[0,0.5],[1,0.5]];portConstraint=eastwest;rotatable=0;whiteSpace=wrap;html=1;" parent="nqcRDhzoilnJjKWwHqof-411" vertex="1">
          <mxGeometry y="50" width="200" height="20" as="geometry" />
        </mxCell>
        <mxCell id="nqcRDhzoilnJjKWwHqof-414" value="&lt;span style=&quot;font-family: &amp;quot;Courier New&amp;quot;; font-size: 10px; font-weight: 700;&quot;&gt;InitTXModulation()&lt;/span&gt;" style="text;strokeColor=none;fillColor=none;align=left;verticalAlign=middle;spacingLeft=4;spacingRight=4;overflow=hidden;points=[[0,0.5],[1,0.5]];portConstraint=eastwest;rotatable=0;whiteSpace=wrap;html=1;" parent="nqcRDhzoilnJjKWwHqof-411" vertex="1">
          <mxGeometry y="70" width="200" height="20" as="geometry" />
        </mxCell>
        <mxCell id="nqcRDhzoilnJjKWwHqof-426" value="HI=SSB&lt;div&gt;LO=CW&lt;/div&gt;" style="edgeStyle=orthogonalEdgeStyle;rounded=0;orthogonalLoop=1;jettySize=auto;html=1;exitX=1;exitY=0.5;exitDx=0;exitDy=0;entryX=0.5;entryY=1;entryDx=0;entryDy=0;" parent="1" source="nqcRDhzoilnJjKWwHqof-415" target="nqcRDhzoilnJjKWwHqof-417" edge="1">
          <mxGeometry relative="1" as="geometry" />
        </mxCell>
        <mxCell id="nqcRDhzoilnJjKWwHqof-415" value="bool modulationState" style="text;html=1;align=center;verticalAlign=middle;whiteSpace=wrap;rounded=0;fontFamily=Courier New;fontStyle=1;strokeColor=default;" parent="1" vertex="1">
          <mxGeometry x="280" y="1210" width="120" height="30" as="geometry" />
        </mxCell>
        <mxCell id="nqcRDhzoilnJjKWwHqof-416" value="" style="group" parent="1" vertex="1" connectable="0">
          <mxGeometry x="470" y="1133" width="80" height="70" as="geometry" />
        </mxCell>
        <mxCell id="nqcRDhzoilnJjKWwHqof-417" value="CW/&lt;span style=&quot;background-color: light-dark(#ffffff, var(--ge-dark-color, #121212)); color: light-dark(rgb(0, 0, 0), rgb(255, 255, 255));&quot;&gt;SSB&lt;/span&gt;&lt;div&gt;&lt;span style=&quot;background-color: light-dark(#ffffff, var(--ge-dark-color, #121212)); color: light-dark(rgb(0, 0, 0), rgb(255, 255, 255));&quot;&gt;&lt;br&gt;&lt;/span&gt;&lt;/div&gt;&lt;div&gt;&lt;span style=&quot;background-color: light-dark(#ffffff, var(--ge-dark-color, #121212)); color: light-dark(rgb(0, 0, 0), rgb(255, 255, 255));&quot;&gt;&lt;br&gt;&lt;/span&gt;&lt;/div&gt;&lt;div&gt;&lt;span style=&quot;background-color: light-dark(#ffffff, var(--ge-dark-color, #121212)); color: light-dark(rgb(0, 0, 0), rgb(255, 255, 255));&quot;&gt;&lt;br&gt;&lt;/span&gt;&lt;/div&gt;" style="rounded=1;whiteSpace=wrap;html=1;fontFamily=Helvetica;fontSize=11;fontColor=default;labelBackgroundColor=default;labelPosition=center;verticalLabelPosition=middle;align=center;verticalAlign=middle;" parent="nqcRDhzoilnJjKWwHqof-416" vertex="1">
          <mxGeometry width="80" height="70" as="geometry" />
        </mxCell>
        <mxCell id="nqcRDhzoilnJjKWwHqof-418" value="" style="group" parent="nqcRDhzoilnJjKWwHqof-416" vertex="1" connectable="0">
          <mxGeometry x="20" y="23.333333333333336" width="35.5" height="40.83333333333333" as="geometry" />
        </mxCell>
        <mxCell id="nqcRDhzoilnJjKWwHqof-419" value="" style="ellipse;whiteSpace=wrap;html=1;aspect=fixed;" parent="nqcRDhzoilnJjKWwHqof-418" vertex="1">
          <mxGeometry width="4.374999999999999" height="4.374999999999999" as="geometry" />
        </mxCell>
        <mxCell id="nqcRDhzoilnJjKWwHqof-420" value="" style="ellipse;whiteSpace=wrap;html=1;aspect=fixed;" parent="nqcRDhzoilnJjKWwHqof-418" vertex="1">
          <mxGeometry y="34.99999999999999" width="4.374999999999999" height="4.374999999999999" as="geometry" />
        </mxCell>
        <mxCell id="nqcRDhzoilnJjKWwHqof-421" value="" style="ellipse;whiteSpace=wrap;html=1;aspect=fixed;" parent="nqcRDhzoilnJjKWwHqof-418" vertex="1">
          <mxGeometry x="30.5" y="17.499999999999996" width="4.374999999999999" height="4.374999999999999" as="geometry" />
        </mxCell>
        <mxCell id="nqcRDhzoilnJjKWwHqof-422" value="" style="endArrow=none;html=1;rounded=0;entryX=0;entryY=0.5;entryDx=0;entryDy=0;exitX=1;exitY=1;exitDx=0;exitDy=0;" parent="nqcRDhzoilnJjKWwHqof-418" source="nqcRDhzoilnJjKWwHqof-419" target="nqcRDhzoilnJjKWwHqof-421" edge="1">
          <mxGeometry width="50" height="50" relative="1" as="geometry">
            <mxPoint x="-40" y="34.99999999999999" as="sourcePoint" />
            <mxPoint x="10" y="-23.333333333333332" as="targetPoint" />
          </mxGeometry>
        </mxCell>
        <mxCell id="nqcRDhzoilnJjKWwHqof-423" value="" style="endArrow=none;html=1;rounded=0;entryX=0;entryY=0.5;entryDx=0;entryDy=0;exitX=1;exitY=0;exitDx=0;exitDy=0;dashed=1;" parent="nqcRDhzoilnJjKWwHqof-418" source="nqcRDhzoilnJjKWwHqof-420" target="nqcRDhzoilnJjKWwHqof-421" edge="1">
          <mxGeometry width="50" height="50" relative="1" as="geometry">
            <mxPoint x="14" y="16.333333333333332" as="sourcePoint" />
            <mxPoint x="41" y="32.666666666666664" as="targetPoint" />
          </mxGeometry>
        </mxCell>
        <mxCell id="nqcRDhzoilnJjKWwHqof-424" value="1" style="text;html=1;align=center;verticalAlign=middle;whiteSpace=wrap;rounded=0;fontSize=8;" parent="nqcRDhzoilnJjKWwHqof-418" vertex="1">
          <mxGeometry y="4.666666666666666" width="10" height="11.666666666666666" as="geometry" />
        </mxCell>
        <mxCell id="nqcRDhzoilnJjKWwHqof-425" value="0" style="text;html=1;align=center;verticalAlign=middle;whiteSpace=wrap;rounded=0;fontSize=8;" parent="nqcRDhzoilnJjKWwHqof-418" vertex="1">
          <mxGeometry y="23.333333333333332" width="10" height="11.666666666666666" as="geometry" />
        </mxCell>
        <mxCell id="nqcRDhzoilnJjKWwHqof-427" value="HI" style="rounded=0;orthogonalLoop=1;jettySize=auto;html=1;exitX=1;exitY=0.5;exitDx=0;exitDy=0;entryX=0;entryY=0.25;entryDx=0;entryDy=0;" parent="1" source="nqcRDhzoilnJjKWwHqof-412" target="nqcRDhzoilnJjKWwHqof-415" edge="1">
          <mxGeometry relative="1" as="geometry" />
        </mxCell>
        <mxCell id="nqcRDhzoilnJjKWwHqof-428" value="LO" style="rounded=0;orthogonalLoop=1;jettySize=auto;html=1;exitX=1;exitY=0.5;exitDx=0;exitDy=0;entryX=0;entryY=0.75;entryDx=0;entryDy=0;" parent="1" source="nqcRDhzoilnJjKWwHqof-413" target="nqcRDhzoilnJjKWwHqof-415" edge="1">
          <mxGeometry relative="1" as="geometry" />
        </mxCell>
        <mxCell id="nqcRDhzoilnJjKWwHqof-429" value="Calibration Control" style="swimlane;fontStyle=0;childLayout=stackLayout;horizontal=1;startSize=30;horizontalStack=0;resizeParent=1;resizeParentMax=0;resizeLast=0;collapsible=1;marginBottom=0;whiteSpace=wrap;html=1;" parent="1" vertex="1">
          <mxGeometry x="30" y="1290" width="200" height="90" as="geometry" />
        </mxCell>
        <mxCell id="nqcRDhzoilnJjKWwHqof-430" value="EnableCalFeedback()" style="text;strokeColor=none;fillColor=none;align=left;verticalAlign=middle;spacingLeft=4;spacingRight=4;overflow=hidden;points=[[0,0.5],[1,0.5]];portConstraint=eastwest;rotatable=0;whiteSpace=wrap;html=1;fontFamily=Courier New;fontSize=10;fontStyle=1" parent="nqcRDhzoilnJjKWwHqof-429" vertex="1">
          <mxGeometry y="30" width="200" height="20" as="geometry" />
        </mxCell>
        <mxCell id="nqcRDhzoilnJjKWwHqof-431" value="&lt;span style=&quot;font-family: &amp;quot;Courier New&amp;quot;; font-size: 10px; font-weight: 700;&quot;&gt;DisableCalFeedback()&lt;/span&gt;" style="text;strokeColor=none;fillColor=none;align=left;verticalAlign=middle;spacingLeft=4;spacingRight=4;overflow=hidden;points=[[0,0.5],[1,0.5]];portConstraint=eastwest;rotatable=0;whiteSpace=wrap;html=1;" parent="nqcRDhzoilnJjKWwHqof-429" vertex="1">
          <mxGeometry y="50" width="200" height="20" as="geometry" />
        </mxCell>
        <mxCell id="nqcRDhzoilnJjKWwHqof-432" value="&lt;span style=&quot;font-family: &amp;quot;Courier New&amp;quot;; font-size: 10px; font-weight: 700;&quot;&gt;InitCalFeedbackControl()&lt;/span&gt;" style="text;strokeColor=none;fillColor=none;align=left;verticalAlign=middle;spacingLeft=4;spacingRight=4;overflow=hidden;points=[[0,0.5],[1,0.5]];portConstraint=eastwest;rotatable=0;whiteSpace=wrap;html=1;" parent="nqcRDhzoilnJjKWwHqof-429" vertex="1">
          <mxGeometry y="70" width="200" height="20" as="geometry" />
        </mxCell>
        <mxCell id="nqcRDhzoilnJjKWwHqof-433" value="HI=ON&lt;div&gt;LO=OFF&lt;/div&gt;" style="edgeStyle=orthogonalEdgeStyle;rounded=0;orthogonalLoop=1;jettySize=auto;html=1;exitX=1;exitY=0.5;exitDx=0;exitDy=0;entryX=0.5;entryY=1;entryDx=0;entryDy=0;" parent="1" source="nqcRDhzoilnJjKWwHqof-434" edge="1">
          <mxGeometry relative="1" as="geometry">
            <mxPoint x="510" y="1320" as="targetPoint" />
          </mxGeometry>
        </mxCell>
        <mxCell id="nqcRDhzoilnJjKWwHqof-434" value="bool calFeedbackState" style="text;html=1;align=center;verticalAlign=middle;whiteSpace=wrap;rounded=0;fontFamily=Courier New;fontStyle=1;strokeColor=default;" parent="1" vertex="1">
          <mxGeometry x="280" y="1330" width="120" height="30" as="geometry" />
        </mxCell>
        <mxCell id="nqcRDhzoilnJjKWwHqof-445" value="HI" style="rounded=0;orthogonalLoop=1;jettySize=auto;html=1;exitX=1;exitY=0.5;exitDx=0;exitDy=0;entryX=0;entryY=0.25;entryDx=0;entryDy=0;" parent="1" source="nqcRDhzoilnJjKWwHqof-430" target="nqcRDhzoilnJjKWwHqof-434" edge="1">
          <mxGeometry relative="1" as="geometry" />
        </mxCell>
        <mxCell id="nqcRDhzoilnJjKWwHqof-446" value="LO" style="rounded=0;orthogonalLoop=1;jettySize=auto;html=1;exitX=1;exitY=0.5;exitDx=0;exitDy=0;entryX=0;entryY=0.75;entryDx=0;entryDy=0;" parent="1" source="nqcRDhzoilnJjKWwHqof-431" target="nqcRDhzoilnJjKWwHqof-434" edge="1">
          <mxGeometry relative="1" as="geometry" />
        </mxCell>
        <mxCell id="nqcRDhzoilnJjKWwHqof-447" value="" style="group" parent="1" vertex="1" connectable="0">
          <mxGeometry x="470" y="1250" width="80" height="70" as="geometry" />
        </mxCell>
        <mxCell id="nqcRDhzoilnJjKWwHqof-448" value="CAL&lt;br&gt;&lt;div&gt;&lt;span style=&quot;background-color: light-dark(#ffffff, var(--ge-dark-color, #121212)); color: light-dark(rgb(0, 0, 0), rgb(255, 255, 255));&quot;&gt;&lt;br&gt;&lt;/span&gt;&lt;/div&gt;&lt;div&gt;&lt;span style=&quot;background-color: light-dark(#ffffff, var(--ge-dark-color, #121212)); color: light-dark(rgb(0, 0, 0), rgb(255, 255, 255));&quot;&gt;&lt;br&gt;&lt;/span&gt;&lt;/div&gt;&lt;div&gt;&lt;span style=&quot;background-color: light-dark(#ffffff, var(--ge-dark-color, #121212)); color: light-dark(rgb(0, 0, 0), rgb(255, 255, 255));&quot;&gt;&lt;br&gt;&lt;/span&gt;&lt;/div&gt;" style="rounded=1;whiteSpace=wrap;html=1;fontFamily=Helvetica;fontSize=11;fontColor=default;labelBackgroundColor=default;labelPosition=center;verticalLabelPosition=middle;align=center;verticalAlign=middle;" parent="nqcRDhzoilnJjKWwHqof-447" vertex="1">
          <mxGeometry width="80" height="70" as="geometry" />
        </mxCell>
        <mxCell id="nqcRDhzoilnJjKWwHqof-449" value="" style="ellipse;whiteSpace=wrap;html=1;aspect=fixed;" parent="nqcRDhzoilnJjKWwHqof-447" vertex="1">
          <mxGeometry x="40" y="23.623333333333257" width="4.374999999999999" height="4.374999999999999" as="geometry" />
        </mxCell>
        <mxCell id="nqcRDhzoilnJjKWwHqof-450" value="" style="ellipse;whiteSpace=wrap;html=1;aspect=fixed;" parent="nqcRDhzoilnJjKWwHqof-447" vertex="1">
          <mxGeometry x="40" y="53.95333333333325" width="4.374999999999999" height="4.374999999999999" as="geometry" />
        </mxCell>
        <mxCell id="nqcRDhzoilnJjKWwHqof-451" value="" style="ellipse;whiteSpace=wrap;html=1;aspect=fixed;" parent="nqcRDhzoilnJjKWwHqof-447" vertex="1">
          <mxGeometry x="10" y="42.28333333333325" width="4.374999999999999" height="4.374999999999999" as="geometry" />
        </mxCell>
        <mxCell id="nqcRDhzoilnJjKWwHqof-452" value="" style="endArrow=none;html=1;rounded=0;entryX=1;entryY=0.5;entryDx=0;entryDy=0;exitX=0;exitY=1;exitDx=0;exitDy=0;" parent="nqcRDhzoilnJjKWwHqof-447" source="nqcRDhzoilnJjKWwHqof-449" target="nqcRDhzoilnJjKWwHqof-451" edge="1">
          <mxGeometry width="50" height="50" relative="1" as="geometry">
            <mxPoint x="-20" y="58.33333333333325" as="sourcePoint" />
            <mxPoint x="30" y="-7.460698725481052e-14" as="targetPoint" />
          </mxGeometry>
        </mxCell>
        <mxCell id="nqcRDhzoilnJjKWwHqof-453" value="" style="endArrow=none;html=1;rounded=0;entryX=1;entryY=0.5;entryDx=0;entryDy=0;exitX=0;exitY=0;exitDx=0;exitDy=0;dashed=1;" parent="nqcRDhzoilnJjKWwHqof-447" source="nqcRDhzoilnJjKWwHqof-450" target="nqcRDhzoilnJjKWwHqof-451" edge="1">
          <mxGeometry width="50" height="50" relative="1" as="geometry">
            <mxPoint x="34" y="39.666666666666586" as="sourcePoint" />
            <mxPoint x="61" y="55.99999999999992" as="targetPoint" />
          </mxGeometry>
        </mxCell>
        <mxCell id="nqcRDhzoilnJjKWwHqof-454" value="1" style="text;html=1;align=center;verticalAlign=middle;whiteSpace=wrap;rounded=0;fontSize=8;" parent="nqcRDhzoilnJjKWwHqof-447" vertex="1">
          <mxGeometry x="37.19" y="26.999999999999922" width="10" height="11.666666666666666" as="geometry" />
        </mxCell>
        <mxCell id="nqcRDhzoilnJjKWwHqof-455" value="0" style="text;html=1;align=center;verticalAlign=middle;whiteSpace=wrap;rounded=0;fontSize=8;" parent="nqcRDhzoilnJjKWwHqof-447" vertex="1">
          <mxGeometry x="37.19" y="42.286666666666584" width="10" height="11.666666666666666" as="geometry" />
        </mxCell>
        <mxCell id="nqcRDhzoilnJjKWwHqof-479" value="State Diagram" style="shape=table;startSize=30;container=1;collapsible=0;childLayout=tableLayout;strokeColor=default;fontSize=16;" parent="1" vertex="1">
          <mxGeometry x="720" y="720" width="559" height="406" as="geometry" />
        </mxCell>
        <mxCell id="nqcRDhzoilnJjKWwHqof-480" value="" style="shape=tableRow;horizontal=0;startSize=0;swimlaneHead=0;swimlaneBody=0;strokeColor=inherit;top=0;left=0;bottom=0;right=0;collapsible=0;dropTarget=0;fillColor=none;points=[[0,0.5],[1,0.5]];portConstraint=eastwest;fontSize=16;" parent="nqcRDhzoilnJjKWwHqof-479" vertex="1">
          <mxGeometry y="30" width="559" height="40" as="geometry" />
        </mxCell>
        <mxCell id="nqcRDhzoilnJjKWwHqof-481" value="Variable" style="shape=partialRectangle;html=1;whiteSpace=wrap;connectable=0;strokeColor=inherit;overflow=hidden;fillColor=none;top=0;left=0;bottom=0;right=0;pointerEvents=1;fontSize=16;fontStyle=1" parent="nqcRDhzoilnJjKWwHqof-480" vertex="1">
          <mxGeometry width="159" height="40" as="geometry">
            <mxRectangle width="159" height="40" as="alternateBounds" />
          </mxGeometry>
        </mxCell>
        <mxCell id="nqcRDhzoilnJjKWwHqof-482" value="Receive" style="shape=partialRectangle;html=1;whiteSpace=wrap;connectable=0;strokeColor=inherit;overflow=hidden;fillColor=none;top=0;left=0;bottom=0;right=0;pointerEvents=1;fontSize=16;fontStyle=1" parent="nqcRDhzoilnJjKWwHqof-480" vertex="1">
          <mxGeometry x="159" width="80" height="40" as="geometry">
            <mxRectangle width="80" height="40" as="alternateBounds" />
          </mxGeometry>
        </mxCell>
        <mxCell id="nqcRDhzoilnJjKWwHqof-483" value="SSB Transmit" style="shape=partialRectangle;html=1;whiteSpace=wrap;connectable=0;strokeColor=inherit;overflow=hidden;fillColor=none;top=0;left=0;bottom=0;right=0;pointerEvents=1;fontSize=16;fontStyle=1" parent="nqcRDhzoilnJjKWwHqof-480" vertex="1">
          <mxGeometry x="239" width="80" height="40" as="geometry">
            <mxRectangle width="80" height="40" as="alternateBounds" />
          </mxGeometry>
        </mxCell>
        <mxCell id="nqcRDhzoilnJjKWwHqof-594" value="CW&lt;div&gt;&lt;span style=&quot;background-color: transparent; color: light-dark(rgb(0, 0, 0), rgb(255, 255, 255));&quot;&gt;Space&lt;/span&gt;&lt;/div&gt;" style="shape=partialRectangle;html=1;whiteSpace=wrap;connectable=0;strokeColor=inherit;overflow=hidden;fillColor=none;top=0;left=0;bottom=0;right=0;pointerEvents=1;fontSize=16;fontStyle=1" parent="nqcRDhzoilnJjKWwHqof-480" vertex="1">
          <mxGeometry x="319" width="80" height="40" as="geometry">
            <mxRectangle width="80" height="40" as="alternateBounds" />
          </mxGeometry>
        </mxCell>
        <mxCell id="nqcRDhzoilnJjKWwHqof-694" value="CW&lt;div&gt;Mark&lt;/div&gt;" style="shape=partialRectangle;html=1;whiteSpace=wrap;connectable=0;strokeColor=inherit;overflow=hidden;fillColor=none;top=0;left=0;bottom=0;right=0;pointerEvents=1;fontSize=16;fontStyle=1" parent="nqcRDhzoilnJjKWwHqof-480" vertex="1">
          <mxGeometry x="399" width="80" height="40" as="geometry">
            <mxRectangle width="80" height="40" as="alternateBounds" />
          </mxGeometry>
        </mxCell>
        <mxCell id="nqcRDhzoilnJjKWwHqof-707" value="Receive IQ cal" style="shape=partialRectangle;html=1;whiteSpace=wrap;connectable=0;strokeColor=inherit;overflow=hidden;fillColor=none;top=0;left=0;bottom=0;right=0;pointerEvents=1;fontSize=16;fontStyle=1" parent="nqcRDhzoilnJjKWwHqof-480" vertex="1">
          <mxGeometry x="479" width="80" height="40" as="geometry">
            <mxRectangle width="80" height="40" as="alternateBounds" />
          </mxGeometry>
        </mxCell>
        <mxCell id="nqcRDhzoilnJjKWwHqof-484" value="" style="shape=tableRow;horizontal=0;startSize=0;swimlaneHead=0;swimlaneBody=0;strokeColor=inherit;top=0;left=0;bottom=0;right=0;collapsible=0;dropTarget=0;fillColor=none;points=[[0,0.5],[1,0.5]];portConstraint=eastwest;fontSize=16;" parent="nqcRDhzoilnJjKWwHqof-479" vertex="1">
          <mxGeometry y="70" width="559" height="28" as="geometry" />
        </mxCell>
        <mxCell id="nqcRDhzoilnJjKWwHqof-485" value="GPA_state" style="shape=partialRectangle;html=1;whiteSpace=wrap;connectable=0;strokeColor=inherit;overflow=hidden;fillColor=none;top=0;left=0;bottom=0;right=0;pointerEvents=1;fontSize=12;fontFamily=Courier New;fontStyle=1" parent="nqcRDhzoilnJjKWwHqof-484" vertex="1">
          <mxGeometry width="159" height="28" as="geometry">
            <mxRectangle width="159" height="28" as="alternateBounds" />
          </mxGeometry>
        </mxCell>
        <mxCell id="nqcRDhzoilnJjKWwHqof-486" value="set" style="shape=partialRectangle;html=1;whiteSpace=wrap;connectable=0;strokeColor=inherit;overflow=hidden;fillColor=none;top=0;left=0;bottom=0;right=0;pointerEvents=1;fontSize=16;" parent="nqcRDhzoilnJjKWwHqof-484" vertex="1">
          <mxGeometry x="159" width="80" height="28" as="geometry">
            <mxRectangle width="80" height="28" as="alternateBounds" />
          </mxGeometry>
        </mxCell>
        <mxCell id="nqcRDhzoilnJjKWwHqof-487" value="N/A" style="shape=partialRectangle;html=1;whiteSpace=wrap;connectable=0;strokeColor=inherit;overflow=hidden;fillColor=none;top=0;left=0;bottom=0;right=0;pointerEvents=1;fontSize=16;" parent="nqcRDhzoilnJjKWwHqof-484" vertex="1">
          <mxGeometry x="239" width="80" height="28" as="geometry">
            <mxRectangle width="80" height="28" as="alternateBounds" />
          </mxGeometry>
        </mxCell>
        <mxCell id="nqcRDhzoilnJjKWwHqof-595" value="N/A" style="shape=partialRectangle;html=1;whiteSpace=wrap;connectable=0;strokeColor=inherit;overflow=hidden;fillColor=none;top=0;left=0;bottom=0;right=0;pointerEvents=1;fontSize=16;" parent="nqcRDhzoilnJjKWwHqof-484" vertex="1">
          <mxGeometry x="319" width="80" height="28" as="geometry">
            <mxRectangle width="80" height="28" as="alternateBounds" />
          </mxGeometry>
        </mxCell>
        <mxCell id="nqcRDhzoilnJjKWwHqof-695" value="N/A" style="shape=partialRectangle;html=1;whiteSpace=wrap;connectable=0;strokeColor=inherit;overflow=hidden;fillColor=none;top=0;left=0;bottom=0;right=0;pointerEvents=1;fontSize=16;" parent="nqcRDhzoilnJjKWwHqof-484" vertex="1">
          <mxGeometry x="399" width="80" height="28" as="geometry">
            <mxRectangle width="80" height="28" as="alternateBounds" />
          </mxGeometry>
        </mxCell>
        <mxCell id="nqcRDhzoilnJjKWwHqof-708" value="30 dB" style="shape=partialRectangle;html=1;whiteSpace=wrap;connectable=0;strokeColor=inherit;overflow=hidden;fillColor=none;top=0;left=0;bottom=0;right=0;pointerEvents=1;fontSize=16;" parent="nqcRDhzoilnJjKWwHqof-484" vertex="1">
          <mxGeometry x="479" width="80" height="28" as="geometry">
            <mxRectangle width="80" height="28" as="alternateBounds" />
          </mxGeometry>
        </mxCell>
        <mxCell id="nqcRDhzoilnJjKWwHqof-525" value="" style="shape=tableRow;horizontal=0;startSize=0;swimlaneHead=0;swimlaneBody=0;strokeColor=inherit;top=0;left=0;bottom=0;right=0;collapsible=0;dropTarget=0;fillColor=none;points=[[0,0.5],[1,0.5]];portConstraint=eastwest;fontSize=16;" parent="nqcRDhzoilnJjKWwHqof-479" vertex="1">
          <mxGeometry y="98" width="559" height="28" as="geometry" />
        </mxCell>
        <mxCell id="nqcRDhzoilnJjKWwHqof-526" value="GPB_state" style="shape=partialRectangle;html=1;whiteSpace=wrap;connectable=0;strokeColor=inherit;overflow=hidden;fillColor=none;top=0;left=0;bottom=0;right=0;pointerEvents=1;fontSize=12;fontFamily=Courier New;fontStyle=1" parent="nqcRDhzoilnJjKWwHqof-525" vertex="1">
          <mxGeometry width="159" height="28" as="geometry">
            <mxRectangle width="159" height="28" as="alternateBounds" />
          </mxGeometry>
        </mxCell>
        <mxCell id="nqcRDhzoilnJjKWwHqof-527" value="N/A" style="shape=partialRectangle;html=1;whiteSpace=wrap;connectable=0;strokeColor=inherit;overflow=hidden;fillColor=none;top=0;left=0;bottom=0;right=0;pointerEvents=1;fontSize=16;" parent="nqcRDhzoilnJjKWwHqof-525" vertex="1">
          <mxGeometry x="159" width="80" height="28" as="geometry">
            <mxRectangle width="80" height="28" as="alternateBounds" />
          </mxGeometry>
        </mxCell>
        <mxCell id="nqcRDhzoilnJjKWwHqof-528" value="set" style="shape=partialRectangle;html=1;whiteSpace=wrap;connectable=0;strokeColor=inherit;overflow=hidden;fillColor=none;top=0;left=0;bottom=0;right=0;pointerEvents=1;fontSize=16;" parent="nqcRDhzoilnJjKWwHqof-525" vertex="1">
          <mxGeometry x="239" width="80" height="28" as="geometry">
            <mxRectangle width="80" height="28" as="alternateBounds" />
          </mxGeometry>
        </mxCell>
        <mxCell id="nqcRDhzoilnJjKWwHqof-596" value="set" style="shape=partialRectangle;html=1;whiteSpace=wrap;connectable=0;strokeColor=inherit;overflow=hidden;fillColor=none;top=0;left=0;bottom=0;right=0;pointerEvents=1;fontSize=16;" parent="nqcRDhzoilnJjKWwHqof-525" vertex="1">
          <mxGeometry x="319" width="80" height="28" as="geometry">
            <mxRectangle width="80" height="28" as="alternateBounds" />
          </mxGeometry>
        </mxCell>
        <mxCell id="nqcRDhzoilnJjKWwHqof-696" value="set" style="shape=partialRectangle;html=1;whiteSpace=wrap;connectable=0;strokeColor=inherit;overflow=hidden;fillColor=none;top=0;left=0;bottom=0;right=0;pointerEvents=1;fontSize=16;" parent="nqcRDhzoilnJjKWwHqof-525" vertex="1">
          <mxGeometry x="399" width="80" height="28" as="geometry">
            <mxRectangle width="80" height="28" as="alternateBounds" />
          </mxGeometry>
        </mxCell>
        <mxCell id="nqcRDhzoilnJjKWwHqof-709" value="30 dB" style="shape=partialRectangle;html=1;whiteSpace=wrap;connectable=0;strokeColor=inherit;overflow=hidden;fillColor=none;top=0;left=0;bottom=0;right=0;pointerEvents=1;fontSize=16;" parent="nqcRDhzoilnJjKWwHqof-525" vertex="1">
          <mxGeometry x="479" width="80" height="28" as="geometry">
            <mxRectangle width="80" height="28" as="alternateBounds" />
          </mxGeometry>
        </mxCell>
        <mxCell id="nqcRDhzoilnJjKWwHqof-530" value="" style="shape=tableRow;horizontal=0;startSize=0;swimlaneHead=0;swimlaneBody=0;strokeColor=inherit;top=0;left=0;bottom=0;right=0;collapsible=0;dropTarget=0;fillColor=none;points=[[0,0.5],[1,0.5]];portConstraint=eastwest;fontSize=16;" parent="nqcRDhzoilnJjKWwHqof-479" vertex="1">
          <mxGeometry y="126" width="559" height="28" as="geometry" />
        </mxCell>
        <mxCell id="nqcRDhzoilnJjKWwHqof-531" value="frequencySSB_Hz" style="shape=partialRectangle;html=1;whiteSpace=wrap;connectable=0;strokeColor=inherit;overflow=hidden;fillColor=none;top=0;left=0;bottom=0;right=0;pointerEvents=1;fontSize=12;fontFamily=Courier New;fontStyle=1" parent="nqcRDhzoilnJjKWwHqof-530" vertex="1">
          <mxGeometry width="159" height="28" as="geometry">
            <mxRectangle width="159" height="28" as="alternateBounds" />
          </mxGeometry>
        </mxCell>
        <mxCell id="nqcRDhzoilnJjKWwHqof-532" value="set" style="shape=partialRectangle;html=1;whiteSpace=wrap;connectable=0;strokeColor=inherit;overflow=hidden;fillColor=none;top=0;left=0;bottom=0;right=0;pointerEvents=1;fontSize=16;" parent="nqcRDhzoilnJjKWwHqof-530" vertex="1">
          <mxGeometry x="159" width="80" height="28" as="geometry">
            <mxRectangle width="80" height="28" as="alternateBounds" />
          </mxGeometry>
        </mxCell>
        <mxCell id="nqcRDhzoilnJjKWwHqof-533" value="set" style="shape=partialRectangle;html=1;whiteSpace=wrap;connectable=0;strokeColor=inherit;overflow=hidden;fillColor=none;top=0;left=0;bottom=0;right=0;pointerEvents=1;fontSize=16;" parent="nqcRDhzoilnJjKWwHqof-530" vertex="1">
          <mxGeometry x="239" width="80" height="28" as="geometry">
            <mxRectangle width="80" height="28" as="alternateBounds" />
          </mxGeometry>
        </mxCell>
        <mxCell id="nqcRDhzoilnJjKWwHqof-597" value="N/A" style="shape=partialRectangle;html=1;whiteSpace=wrap;connectable=0;strokeColor=inherit;overflow=hidden;fillColor=none;top=0;left=0;bottom=0;right=0;pointerEvents=1;fontSize=16;" parent="nqcRDhzoilnJjKWwHqof-530" vertex="1">
          <mxGeometry x="319" width="80" height="28" as="geometry">
            <mxRectangle width="80" height="28" as="alternateBounds" />
          </mxGeometry>
        </mxCell>
        <mxCell id="nqcRDhzoilnJjKWwHqof-697" value="N/A" style="shape=partialRectangle;html=1;whiteSpace=wrap;connectable=0;strokeColor=inherit;overflow=hidden;fillColor=none;top=0;left=0;bottom=0;right=0;pointerEvents=1;fontSize=16;" parent="nqcRDhzoilnJjKWwHqof-530" vertex="1">
          <mxGeometry x="399" width="80" height="28" as="geometry">
            <mxRectangle width="80" height="28" as="alternateBounds" />
          </mxGeometry>
        </mxCell>
        <mxCell id="nqcRDhzoilnJjKWwHqof-710" value="set" style="shape=partialRectangle;html=1;whiteSpace=wrap;connectable=0;strokeColor=inherit;overflow=hidden;fillColor=none;top=0;left=0;bottom=0;right=0;pointerEvents=1;fontSize=16;" parent="nqcRDhzoilnJjKWwHqof-530" vertex="1">
          <mxGeometry x="479" width="80" height="28" as="geometry">
            <mxRectangle width="80" height="28" as="alternateBounds" />
          </mxGeometry>
        </mxCell>
        <mxCell id="nqcRDhzoilnJjKWwHqof-535" value="" style="shape=tableRow;horizontal=0;startSize=0;swimlaneHead=0;swimlaneBody=0;strokeColor=inherit;top=0;left=0;bottom=0;right=0;collapsible=0;dropTarget=0;fillColor=none;points=[[0,0.5],[1,0.5]];portConstraint=eastwest;fontSize=16;" parent="nqcRDhzoilnJjKWwHqof-479" vertex="1">
          <mxGeometry y="154" width="559" height="28" as="geometry" />
        </mxCell>
        <mxCell id="nqcRDhzoilnJjKWwHqof-536" value="driveCurrentSSB_mA" style="shape=partialRectangle;html=1;whiteSpace=wrap;connectable=0;strokeColor=inherit;overflow=hidden;fillColor=none;top=0;left=0;bottom=0;right=0;pointerEvents=1;fontSize=12;fontFamily=Courier New;fontStyle=1" parent="nqcRDhzoilnJjKWwHqof-535" vertex="1">
          <mxGeometry width="159" height="28" as="geometry">
            <mxRectangle width="159" height="28" as="alternateBounds" />
          </mxGeometry>
        </mxCell>
        <mxCell id="nqcRDhzoilnJjKWwHqof-537" value="set" style="shape=partialRectangle;html=1;whiteSpace=wrap;connectable=0;strokeColor=inherit;overflow=hidden;fillColor=none;top=0;left=0;bottom=0;right=0;pointerEvents=1;fontSize=16;" parent="nqcRDhzoilnJjKWwHqof-535" vertex="1">
          <mxGeometry x="159" width="80" height="28" as="geometry">
            <mxRectangle width="80" height="28" as="alternateBounds" />
          </mxGeometry>
        </mxCell>
        <mxCell id="nqcRDhzoilnJjKWwHqof-538" value="set" style="shape=partialRectangle;html=1;whiteSpace=wrap;connectable=0;strokeColor=inherit;overflow=hidden;fillColor=none;top=0;left=0;bottom=0;right=0;pointerEvents=1;fontSize=16;" parent="nqcRDhzoilnJjKWwHqof-535" vertex="1">
          <mxGeometry x="239" width="80" height="28" as="geometry">
            <mxRectangle width="80" height="28" as="alternateBounds" />
          </mxGeometry>
        </mxCell>
        <mxCell id="nqcRDhzoilnJjKWwHqof-598" value="N/A" style="shape=partialRectangle;html=1;whiteSpace=wrap;connectable=0;strokeColor=inherit;overflow=hidden;fillColor=none;top=0;left=0;bottom=0;right=0;pointerEvents=1;fontSize=16;" parent="nqcRDhzoilnJjKWwHqof-535" vertex="1">
          <mxGeometry x="319" width="80" height="28" as="geometry">
            <mxRectangle width="80" height="28" as="alternateBounds" />
          </mxGeometry>
        </mxCell>
        <mxCell id="nqcRDhzoilnJjKWwHqof-698" value="N/A" style="shape=partialRectangle;html=1;whiteSpace=wrap;connectable=0;strokeColor=inherit;overflow=hidden;fillColor=none;top=0;left=0;bottom=0;right=0;pointerEvents=1;fontSize=16;" parent="nqcRDhzoilnJjKWwHqof-535" vertex="1">
          <mxGeometry x="399" width="80" height="28" as="geometry">
            <mxRectangle width="80" height="28" as="alternateBounds" />
          </mxGeometry>
        </mxCell>
        <mxCell id="nqcRDhzoilnJjKWwHqof-711" value="set" style="shape=partialRectangle;html=1;whiteSpace=wrap;connectable=0;strokeColor=inherit;overflow=hidden;fillColor=none;top=0;left=0;bottom=0;right=0;pointerEvents=1;fontSize=16;" parent="nqcRDhzoilnJjKWwHqof-535" vertex="1">
          <mxGeometry x="479" width="80" height="28" as="geometry">
            <mxRectangle width="80" height="28" as="alternateBounds" />
          </mxGeometry>
        </mxCell>
        <mxCell id="nqcRDhzoilnJjKWwHqof-540" value="" style="shape=tableRow;horizontal=0;startSize=0;swimlaneHead=0;swimlaneBody=0;strokeColor=inherit;top=0;left=0;bottom=0;right=0;collapsible=0;dropTarget=0;fillColor=none;points=[[0,0.5],[1,0.5]];portConstraint=eastwest;fontSize=16;" parent="nqcRDhzoilnJjKWwHqof-479" vertex="1">
          <mxGeometry y="182" width="559" height="28" as="geometry" />
        </mxCell>
        <mxCell id="nqcRDhzoilnJjKWwHqof-541" value="clockEnableSSB" style="shape=partialRectangle;html=1;whiteSpace=wrap;connectable=0;strokeColor=inherit;overflow=hidden;fillColor=none;top=0;left=0;bottom=0;right=0;pointerEvents=1;fontSize=12;fontFamily=Courier New;fontStyle=1" parent="nqcRDhzoilnJjKWwHqof-540" vertex="1">
          <mxGeometry width="159" height="28" as="geometry">
            <mxRectangle width="159" height="28" as="alternateBounds" />
          </mxGeometry>
        </mxCell>
        <mxCell id="nqcRDhzoilnJjKWwHqof-542" value="HI" style="shape=partialRectangle;html=1;whiteSpace=wrap;connectable=0;strokeColor=inherit;overflow=hidden;fillColor=none;top=0;left=0;bottom=0;right=0;pointerEvents=1;fontSize=16;" parent="nqcRDhzoilnJjKWwHqof-540" vertex="1">
          <mxGeometry x="159" width="80" height="28" as="geometry">
            <mxRectangle width="80" height="28" as="alternateBounds" />
          </mxGeometry>
        </mxCell>
        <mxCell id="nqcRDhzoilnJjKWwHqof-543" value="HI" style="shape=partialRectangle;html=1;whiteSpace=wrap;connectable=0;strokeColor=inherit;overflow=hidden;fillColor=none;top=0;left=0;bottom=0;right=0;pointerEvents=1;fontSize=16;" parent="nqcRDhzoilnJjKWwHqof-540" vertex="1">
          <mxGeometry x="239" width="80" height="28" as="geometry">
            <mxRectangle width="80" height="28" as="alternateBounds" />
          </mxGeometry>
        </mxCell>
        <mxCell id="nqcRDhzoilnJjKWwHqof-599" value="LO" style="shape=partialRectangle;html=1;whiteSpace=wrap;connectable=0;strokeColor=inherit;overflow=hidden;fillColor=none;top=0;left=0;bottom=0;right=0;pointerEvents=1;fontSize=16;" parent="nqcRDhzoilnJjKWwHqof-540" vertex="1">
          <mxGeometry x="319" width="80" height="28" as="geometry">
            <mxRectangle width="80" height="28" as="alternateBounds" />
          </mxGeometry>
        </mxCell>
        <mxCell id="nqcRDhzoilnJjKWwHqof-699" value="LO" style="shape=partialRectangle;html=1;whiteSpace=wrap;connectable=0;strokeColor=inherit;overflow=hidden;fillColor=none;top=0;left=0;bottom=0;right=0;pointerEvents=1;fontSize=16;" parent="nqcRDhzoilnJjKWwHqof-540" vertex="1">
          <mxGeometry x="399" width="80" height="28" as="geometry">
            <mxRectangle width="80" height="28" as="alternateBounds" />
          </mxGeometry>
        </mxCell>
        <mxCell id="nqcRDhzoilnJjKWwHqof-712" value="set" style="shape=partialRectangle;html=1;whiteSpace=wrap;connectable=0;strokeColor=inherit;overflow=hidden;fillColor=none;top=0;left=0;bottom=0;right=0;pointerEvents=1;fontSize=16;" parent="nqcRDhzoilnJjKWwHqof-540" vertex="1">
          <mxGeometry x="479" width="80" height="28" as="geometry">
            <mxRectangle width="80" height="28" as="alternateBounds" />
          </mxGeometry>
        </mxCell>
        <mxCell id="nqcRDhzoilnJjKWwHqof-545" value="" style="shape=tableRow;horizontal=0;startSize=0;swimlaneHead=0;swimlaneBody=0;strokeColor=inherit;top=0;left=0;bottom=0;right=0;collapsible=0;dropTarget=0;fillColor=none;points=[[0,0.5],[1,0.5]];portConstraint=eastwest;fontSize=16;" parent="nqcRDhzoilnJjKWwHqof-479" vertex="1">
          <mxGeometry y="210" width="559" height="28" as="geometry" />
        </mxCell>
        <mxCell id="nqcRDhzoilnJjKWwHqof-546" value="frequencyCW_Hz" style="shape=partialRectangle;html=1;whiteSpace=wrap;connectable=0;strokeColor=inherit;overflow=hidden;fillColor=none;top=0;left=0;bottom=0;right=0;pointerEvents=1;fontSize=12;fontFamily=Courier New;fontStyle=1" parent="nqcRDhzoilnJjKWwHqof-545" vertex="1">
          <mxGeometry width="159" height="28" as="geometry">
            <mxRectangle width="159" height="28" as="alternateBounds" />
          </mxGeometry>
        </mxCell>
        <mxCell id="nqcRDhzoilnJjKWwHqof-547" value="N/A" style="shape=partialRectangle;html=1;whiteSpace=wrap;connectable=0;strokeColor=inherit;overflow=hidden;fillColor=none;top=0;left=0;bottom=0;right=0;pointerEvents=1;fontSize=16;" parent="nqcRDhzoilnJjKWwHqof-545" vertex="1">
          <mxGeometry x="159" width="80" height="28" as="geometry">
            <mxRectangle width="80" height="28" as="alternateBounds" />
          </mxGeometry>
        </mxCell>
        <mxCell id="nqcRDhzoilnJjKWwHqof-548" value="N/A" style="shape=partialRectangle;html=1;whiteSpace=wrap;connectable=0;strokeColor=inherit;overflow=hidden;fillColor=none;top=0;left=0;bottom=0;right=0;pointerEvents=1;fontSize=16;" parent="nqcRDhzoilnJjKWwHqof-545" vertex="1">
          <mxGeometry x="239" width="80" height="28" as="geometry">
            <mxRectangle width="80" height="28" as="alternateBounds" />
          </mxGeometry>
        </mxCell>
        <mxCell id="nqcRDhzoilnJjKWwHqof-600" value="set" style="shape=partialRectangle;html=1;whiteSpace=wrap;connectable=0;strokeColor=inherit;overflow=hidden;fillColor=none;top=0;left=0;bottom=0;right=0;pointerEvents=1;fontSize=16;" parent="nqcRDhzoilnJjKWwHqof-545" vertex="1">
          <mxGeometry x="319" width="80" height="28" as="geometry">
            <mxRectangle width="80" height="28" as="alternateBounds" />
          </mxGeometry>
        </mxCell>
        <mxCell id="nqcRDhzoilnJjKWwHqof-700" value="set" style="shape=partialRectangle;html=1;whiteSpace=wrap;connectable=0;strokeColor=inherit;overflow=hidden;fillColor=none;top=0;left=0;bottom=0;right=0;pointerEvents=1;fontSize=16;" parent="nqcRDhzoilnJjKWwHqof-545" vertex="1">
          <mxGeometry x="399" width="80" height="28" as="geometry">
            <mxRectangle width="80" height="28" as="alternateBounds" />
          </mxGeometry>
        </mxCell>
        <mxCell id="nqcRDhzoilnJjKWwHqof-713" value="set" style="shape=partialRectangle;html=1;whiteSpace=wrap;connectable=0;strokeColor=inherit;overflow=hidden;fillColor=none;top=0;left=0;bottom=0;right=0;pointerEvents=1;fontSize=16;" parent="nqcRDhzoilnJjKWwHqof-545" vertex="1">
          <mxGeometry x="479" width="80" height="28" as="geometry">
            <mxRectangle width="80" height="28" as="alternateBounds" />
          </mxGeometry>
        </mxCell>
        <mxCell id="nqcRDhzoilnJjKWwHqof-550" value="" style="shape=tableRow;horizontal=0;startSize=0;swimlaneHead=0;swimlaneBody=0;strokeColor=inherit;top=0;left=0;bottom=0;right=0;collapsible=0;dropTarget=0;fillColor=none;points=[[0,0.5],[1,0.5]];portConstraint=eastwest;fontSize=16;" parent="nqcRDhzoilnJjKWwHqof-479" vertex="1">
          <mxGeometry y="238" width="559" height="28" as="geometry" />
        </mxCell>
        <mxCell id="nqcRDhzoilnJjKWwHqof-551" value="driveCurrentCW_mA" style="shape=partialRectangle;html=1;whiteSpace=wrap;connectable=0;strokeColor=inherit;overflow=hidden;fillColor=none;top=0;left=0;bottom=0;right=0;pointerEvents=1;fontSize=12;fontFamily=Courier New;fontStyle=1" parent="nqcRDhzoilnJjKWwHqof-550" vertex="1">
          <mxGeometry width="159" height="28" as="geometry">
            <mxRectangle width="159" height="28" as="alternateBounds" />
          </mxGeometry>
        </mxCell>
        <mxCell id="nqcRDhzoilnJjKWwHqof-552" value="N/A" style="shape=partialRectangle;html=1;whiteSpace=wrap;connectable=0;strokeColor=inherit;overflow=hidden;fillColor=none;top=0;left=0;bottom=0;right=0;pointerEvents=1;fontSize=16;" parent="nqcRDhzoilnJjKWwHqof-550" vertex="1">
          <mxGeometry x="159" width="80" height="28" as="geometry">
            <mxRectangle width="80" height="28" as="alternateBounds" />
          </mxGeometry>
        </mxCell>
        <mxCell id="nqcRDhzoilnJjKWwHqof-553" value="N/A" style="shape=partialRectangle;html=1;whiteSpace=wrap;connectable=0;strokeColor=inherit;overflow=hidden;fillColor=none;top=0;left=0;bottom=0;right=0;pointerEvents=1;fontSize=16;" parent="nqcRDhzoilnJjKWwHqof-550" vertex="1">
          <mxGeometry x="239" width="80" height="28" as="geometry">
            <mxRectangle width="80" height="28" as="alternateBounds" />
          </mxGeometry>
        </mxCell>
        <mxCell id="nqcRDhzoilnJjKWwHqof-601" value="set" style="shape=partialRectangle;html=1;whiteSpace=wrap;connectable=0;strokeColor=inherit;overflow=hidden;fillColor=none;top=0;left=0;bottom=0;right=0;pointerEvents=1;fontSize=16;" parent="nqcRDhzoilnJjKWwHqof-550" vertex="1">
          <mxGeometry x="319" width="80" height="28" as="geometry">
            <mxRectangle width="80" height="28" as="alternateBounds" />
          </mxGeometry>
        </mxCell>
        <mxCell id="nqcRDhzoilnJjKWwHqof-701" value="set" style="shape=partialRectangle;html=1;whiteSpace=wrap;connectable=0;strokeColor=inherit;overflow=hidden;fillColor=none;top=0;left=0;bottom=0;right=0;pointerEvents=1;fontSize=16;" parent="nqcRDhzoilnJjKWwHqof-550" vertex="1">
          <mxGeometry x="399" width="80" height="28" as="geometry">
            <mxRectangle width="80" height="28" as="alternateBounds" />
          </mxGeometry>
        </mxCell>
        <mxCell id="nqcRDhzoilnJjKWwHqof-714" value="set" style="shape=partialRectangle;html=1;whiteSpace=wrap;connectable=0;strokeColor=inherit;overflow=hidden;fillColor=none;top=0;left=0;bottom=0;right=0;pointerEvents=1;fontSize=16;" parent="nqcRDhzoilnJjKWwHqof-550" vertex="1">
          <mxGeometry x="479" width="80" height="28" as="geometry">
            <mxRectangle width="80" height="28" as="alternateBounds" />
          </mxGeometry>
        </mxCell>
        <mxCell id="nqcRDhzoilnJjKWwHqof-555" value="" style="shape=tableRow;horizontal=0;startSize=0;swimlaneHead=0;swimlaneBody=0;strokeColor=inherit;top=0;left=0;bottom=0;right=0;collapsible=0;dropTarget=0;fillColor=none;points=[[0,0.5],[1,0.5]];portConstraint=eastwest;fontSize=16;" parent="nqcRDhzoilnJjKWwHqof-479" vertex="1">
          <mxGeometry y="266" width="559" height="28" as="geometry" />
        </mxCell>
        <mxCell id="nqcRDhzoilnJjKWwHqof-556" value="clockEnableCW" style="shape=partialRectangle;html=1;whiteSpace=wrap;connectable=0;strokeColor=inherit;overflow=hidden;fillColor=none;top=0;left=0;bottom=0;right=0;pointerEvents=1;fontSize=12;fontFamily=Courier New;fontStyle=1" parent="nqcRDhzoilnJjKWwHqof-555" vertex="1">
          <mxGeometry width="159" height="28" as="geometry">
            <mxRectangle width="159" height="28" as="alternateBounds" />
          </mxGeometry>
        </mxCell>
        <mxCell id="nqcRDhzoilnJjKWwHqof-557" value="LO" style="shape=partialRectangle;html=1;whiteSpace=wrap;connectable=0;strokeColor=inherit;overflow=hidden;fillColor=none;top=0;left=0;bottom=0;right=0;pointerEvents=1;fontSize=16;" parent="nqcRDhzoilnJjKWwHqof-555" vertex="1">
          <mxGeometry x="159" width="80" height="28" as="geometry">
            <mxRectangle width="80" height="28" as="alternateBounds" />
          </mxGeometry>
        </mxCell>
        <mxCell id="nqcRDhzoilnJjKWwHqof-558" value="LO" style="shape=partialRectangle;html=1;whiteSpace=wrap;connectable=0;strokeColor=inherit;overflow=hidden;fillColor=none;top=0;left=0;bottom=0;right=0;pointerEvents=1;fontSize=16;" parent="nqcRDhzoilnJjKWwHqof-555" vertex="1">
          <mxGeometry x="239" width="80" height="28" as="geometry">
            <mxRectangle width="80" height="28" as="alternateBounds" />
          </mxGeometry>
        </mxCell>
        <mxCell id="nqcRDhzoilnJjKWwHqof-602" value="HI" style="shape=partialRectangle;html=1;whiteSpace=wrap;connectable=0;strokeColor=inherit;overflow=hidden;fillColor=none;top=0;left=0;bottom=0;right=0;pointerEvents=1;fontSize=16;" parent="nqcRDhzoilnJjKWwHqof-555" vertex="1">
          <mxGeometry x="319" width="80" height="28" as="geometry">
            <mxRectangle width="80" height="28" as="alternateBounds" />
          </mxGeometry>
        </mxCell>
        <mxCell id="nqcRDhzoilnJjKWwHqof-702" value="HI" style="shape=partialRectangle;html=1;whiteSpace=wrap;connectable=0;strokeColor=inherit;overflow=hidden;fillColor=none;top=0;left=0;bottom=0;right=0;pointerEvents=1;fontSize=16;" parent="nqcRDhzoilnJjKWwHqof-555" vertex="1">
          <mxGeometry x="399" width="80" height="28" as="geometry">
            <mxRectangle width="80" height="28" as="alternateBounds" />
          </mxGeometry>
        </mxCell>
        <mxCell id="nqcRDhzoilnJjKWwHqof-715" value="set" style="shape=partialRectangle;html=1;whiteSpace=wrap;connectable=0;strokeColor=inherit;overflow=hidden;fillColor=none;top=0;left=0;bottom=0;right=0;pointerEvents=1;fontSize=16;" parent="nqcRDhzoilnJjKWwHqof-555" vertex="1">
          <mxGeometry x="479" width="80" height="28" as="geometry">
            <mxRectangle width="80" height="28" as="alternateBounds" />
          </mxGeometry>
        </mxCell>
        <mxCell id="nqcRDhzoilnJjKWwHqof-560" value="" style="shape=tableRow;horizontal=0;startSize=0;swimlaneHead=0;swimlaneBody=0;strokeColor=inherit;top=0;left=0;bottom=0;right=0;collapsible=0;dropTarget=0;fillColor=none;points=[[0,0.5],[1,0.5]];portConstraint=eastwest;fontSize=16;" parent="nqcRDhzoilnJjKWwHqof-479" vertex="1">
          <mxGeometry y="294" width="559" height="28" as="geometry" />
        </mxCell>
        <mxCell id="nqcRDhzoilnJjKWwHqof-561" value="cwState" style="shape=partialRectangle;html=1;whiteSpace=wrap;connectable=0;strokeColor=inherit;overflow=hidden;fillColor=none;top=0;left=0;bottom=0;right=0;pointerEvents=1;fontSize=12;fontFamily=Courier New;fontStyle=1" parent="nqcRDhzoilnJjKWwHqof-560" vertex="1">
          <mxGeometry width="159" height="28" as="geometry">
            <mxRectangle width="159" height="28" as="alternateBounds" />
          </mxGeometry>
        </mxCell>
        <mxCell id="nqcRDhzoilnJjKWwHqof-562" value="LO" style="shape=partialRectangle;html=1;whiteSpace=wrap;connectable=0;strokeColor=inherit;overflow=hidden;fillColor=none;top=0;left=0;bottom=0;right=0;pointerEvents=1;fontSize=16;" parent="nqcRDhzoilnJjKWwHqof-560" vertex="1">
          <mxGeometry x="159" width="80" height="28" as="geometry">
            <mxRectangle width="80" height="28" as="alternateBounds" />
          </mxGeometry>
        </mxCell>
        <mxCell id="nqcRDhzoilnJjKWwHqof-563" value="LO" style="shape=partialRectangle;html=1;whiteSpace=wrap;connectable=0;strokeColor=inherit;overflow=hidden;fillColor=none;top=0;left=0;bottom=0;right=0;pointerEvents=1;fontSize=16;" parent="nqcRDhzoilnJjKWwHqof-560" vertex="1">
          <mxGeometry x="239" width="80" height="28" as="geometry">
            <mxRectangle width="80" height="28" as="alternateBounds" />
          </mxGeometry>
        </mxCell>
        <mxCell id="nqcRDhzoilnJjKWwHqof-603" value="LO" style="shape=partialRectangle;html=1;whiteSpace=wrap;connectable=0;strokeColor=inherit;overflow=hidden;fillColor=none;top=0;left=0;bottom=0;right=0;pointerEvents=1;fontSize=16;" parent="nqcRDhzoilnJjKWwHqof-560" vertex="1">
          <mxGeometry x="319" width="80" height="28" as="geometry">
            <mxRectangle width="80" height="28" as="alternateBounds" />
          </mxGeometry>
        </mxCell>
        <mxCell id="nqcRDhzoilnJjKWwHqof-703" value="HI" style="shape=partialRectangle;html=1;whiteSpace=wrap;connectable=0;strokeColor=inherit;overflow=hidden;fillColor=none;top=0;left=0;bottom=0;right=0;pointerEvents=1;fontSize=16;" parent="nqcRDhzoilnJjKWwHqof-560" vertex="1">
          <mxGeometry x="399" width="80" height="28" as="geometry">
            <mxRectangle width="80" height="28" as="alternateBounds" />
          </mxGeometry>
        </mxCell>
        <mxCell id="nqcRDhzoilnJjKWwHqof-716" value="HI" style="shape=partialRectangle;html=1;whiteSpace=wrap;connectable=0;strokeColor=inherit;overflow=hidden;fillColor=none;top=0;left=0;bottom=0;right=0;pointerEvents=1;fontSize=16;" parent="nqcRDhzoilnJjKWwHqof-560" vertex="1">
          <mxGeometry x="479" width="80" height="28" as="geometry">
            <mxRectangle width="80" height="28" as="alternateBounds" />
          </mxGeometry>
        </mxCell>
        <mxCell id="nqcRDhzoilnJjKWwHqof-565" value="" style="shape=tableRow;horizontal=0;startSize=0;swimlaneHead=0;swimlaneBody=0;strokeColor=inherit;top=0;left=0;bottom=0;right=0;collapsible=0;dropTarget=0;fillColor=none;points=[[0,0.5],[1,0.5]];portConstraint=eastwest;fontSize=16;" parent="nqcRDhzoilnJjKWwHqof-479" vertex="1">
          <mxGeometry y="322" width="559" height="28" as="geometry" />
        </mxCell>
        <mxCell id="nqcRDhzoilnJjKWwHqof-566" value="rxtxState" style="shape=partialRectangle;html=1;whiteSpace=wrap;connectable=0;strokeColor=inherit;overflow=hidden;fillColor=none;top=0;left=0;bottom=0;right=0;pointerEvents=1;fontSize=12;fontFamily=Courier New;fontStyle=1" parent="nqcRDhzoilnJjKWwHqof-565" vertex="1">
          <mxGeometry width="159" height="28" as="geometry">
            <mxRectangle width="159" height="28" as="alternateBounds" />
          </mxGeometry>
        </mxCell>
        <mxCell id="nqcRDhzoilnJjKWwHqof-567" value="LO" style="shape=partialRectangle;html=1;whiteSpace=wrap;connectable=0;strokeColor=inherit;overflow=hidden;fillColor=none;top=0;left=0;bottom=0;right=0;pointerEvents=1;fontSize=16;" parent="nqcRDhzoilnJjKWwHqof-565" vertex="1">
          <mxGeometry x="159" width="80" height="28" as="geometry">
            <mxRectangle width="80" height="28" as="alternateBounds" />
          </mxGeometry>
        </mxCell>
        <mxCell id="nqcRDhzoilnJjKWwHqof-568" value="HI" style="shape=partialRectangle;html=1;whiteSpace=wrap;connectable=0;strokeColor=inherit;overflow=hidden;fillColor=none;top=0;left=0;bottom=0;right=0;pointerEvents=1;fontSize=16;" parent="nqcRDhzoilnJjKWwHqof-565" vertex="1">
          <mxGeometry x="239" width="80" height="28" as="geometry">
            <mxRectangle width="80" height="28" as="alternateBounds" />
          </mxGeometry>
        </mxCell>
        <mxCell id="nqcRDhzoilnJjKWwHqof-604" value="HI" style="shape=partialRectangle;html=1;whiteSpace=wrap;connectable=0;strokeColor=inherit;overflow=hidden;fillColor=none;top=0;left=0;bottom=0;right=0;pointerEvents=1;fontSize=16;" parent="nqcRDhzoilnJjKWwHqof-565" vertex="1">
          <mxGeometry x="319" width="80" height="28" as="geometry">
            <mxRectangle width="80" height="28" as="alternateBounds" />
          </mxGeometry>
        </mxCell>
        <mxCell id="nqcRDhzoilnJjKWwHqof-704" value="HI" style="shape=partialRectangle;html=1;whiteSpace=wrap;connectable=0;strokeColor=inherit;overflow=hidden;fillColor=none;top=0;left=0;bottom=0;right=0;pointerEvents=1;fontSize=16;" parent="nqcRDhzoilnJjKWwHqof-565" vertex="1">
          <mxGeometry x="399" width="80" height="28" as="geometry">
            <mxRectangle width="80" height="28" as="alternateBounds" />
          </mxGeometry>
        </mxCell>
        <mxCell id="nqcRDhzoilnJjKWwHqof-717" value="LO" style="shape=partialRectangle;html=1;whiteSpace=wrap;connectable=0;strokeColor=inherit;overflow=hidden;fillColor=none;top=0;left=0;bottom=0;right=0;pointerEvents=1;fontSize=16;" parent="nqcRDhzoilnJjKWwHqof-565" vertex="1">
          <mxGeometry x="479" width="80" height="28" as="geometry">
            <mxRectangle width="80" height="28" as="alternateBounds" />
          </mxGeometry>
        </mxCell>
        <mxCell id="nqcRDhzoilnJjKWwHqof-570" value="" style="shape=tableRow;horizontal=0;startSize=0;swimlaneHead=0;swimlaneBody=0;strokeColor=inherit;top=0;left=0;bottom=0;right=0;collapsible=0;dropTarget=0;fillColor=none;points=[[0,0.5],[1,0.5]];portConstraint=eastwest;fontSize=16;" parent="nqcRDhzoilnJjKWwHqof-479" vertex="1">
          <mxGeometry y="350" width="559" height="28" as="geometry" />
        </mxCell>
        <mxCell id="nqcRDhzoilnJjKWwHqof-571" value="modulationState" style="shape=partialRectangle;html=1;whiteSpace=wrap;connectable=0;strokeColor=inherit;overflow=hidden;fillColor=none;top=0;left=0;bottom=0;right=0;pointerEvents=1;fontSize=12;fontFamily=Courier New;fontStyle=1" parent="nqcRDhzoilnJjKWwHqof-570" vertex="1">
          <mxGeometry width="159" height="28" as="geometry">
            <mxRectangle width="159" height="28" as="alternateBounds" />
          </mxGeometry>
        </mxCell>
        <mxCell id="nqcRDhzoilnJjKWwHqof-572" value="N/A" style="shape=partialRectangle;html=1;whiteSpace=wrap;connectable=0;strokeColor=inherit;overflow=hidden;fillColor=none;top=0;left=0;bottom=0;right=0;pointerEvents=1;fontSize=16;" parent="nqcRDhzoilnJjKWwHqof-570" vertex="1">
          <mxGeometry x="159" width="80" height="28" as="geometry">
            <mxRectangle width="80" height="28" as="alternateBounds" />
          </mxGeometry>
        </mxCell>
        <mxCell id="nqcRDhzoilnJjKWwHqof-573" value="HI" style="shape=partialRectangle;html=1;whiteSpace=wrap;connectable=0;strokeColor=inherit;overflow=hidden;fillColor=none;top=0;left=0;bottom=0;right=0;pointerEvents=1;fontSize=16;" parent="nqcRDhzoilnJjKWwHqof-570" vertex="1">
          <mxGeometry x="239" width="80" height="28" as="geometry">
            <mxRectangle width="80" height="28" as="alternateBounds" />
          </mxGeometry>
        </mxCell>
        <mxCell id="nqcRDhzoilnJjKWwHqof-605" value="LO" style="shape=partialRectangle;html=1;whiteSpace=wrap;connectable=0;strokeColor=inherit;overflow=hidden;fillColor=none;top=0;left=0;bottom=0;right=0;pointerEvents=1;fontSize=16;" parent="nqcRDhzoilnJjKWwHqof-570" vertex="1">
          <mxGeometry x="319" width="80" height="28" as="geometry">
            <mxRectangle width="80" height="28" as="alternateBounds" />
          </mxGeometry>
        </mxCell>
        <mxCell id="nqcRDhzoilnJjKWwHqof-705" value="LO" style="shape=partialRectangle;html=1;whiteSpace=wrap;connectable=0;strokeColor=inherit;overflow=hidden;fillColor=none;top=0;left=0;bottom=0;right=0;pointerEvents=1;fontSize=16;" parent="nqcRDhzoilnJjKWwHqof-570" vertex="1">
          <mxGeometry x="399" width="80" height="28" as="geometry">
            <mxRectangle width="80" height="28" as="alternateBounds" />
          </mxGeometry>
        </mxCell>
        <mxCell id="nqcRDhzoilnJjKWwHqof-718" value="LO" style="shape=partialRectangle;html=1;whiteSpace=wrap;connectable=0;strokeColor=inherit;overflow=hidden;fillColor=none;top=0;left=0;bottom=0;right=0;pointerEvents=1;fontSize=16;" parent="nqcRDhzoilnJjKWwHqof-570" vertex="1">
          <mxGeometry x="479" width="80" height="28" as="geometry">
            <mxRectangle width="80" height="28" as="alternateBounds" />
          </mxGeometry>
        </mxCell>
        <mxCell id="nqcRDhzoilnJjKWwHqof-575" value="" style="shape=tableRow;horizontal=0;startSize=0;swimlaneHead=0;swimlaneBody=0;strokeColor=inherit;top=0;left=0;bottom=0;right=0;collapsible=0;dropTarget=0;fillColor=none;points=[[0,0.5],[1,0.5]];portConstraint=eastwest;fontSize=16;" parent="nqcRDhzoilnJjKWwHqof-479" vertex="1">
          <mxGeometry y="378" width="559" height="28" as="geometry" />
        </mxCell>
        <mxCell id="nqcRDhzoilnJjKWwHqof-576" value="calFeedbackState" style="shape=partialRectangle;html=1;whiteSpace=wrap;connectable=0;strokeColor=inherit;overflow=hidden;fillColor=none;top=0;left=0;bottom=0;right=0;pointerEvents=1;fontSize=12;fontFamily=Courier New;fontStyle=1" parent="nqcRDhzoilnJjKWwHqof-575" vertex="1">
          <mxGeometry width="159" height="28" as="geometry">
            <mxRectangle width="159" height="28" as="alternateBounds" />
          </mxGeometry>
        </mxCell>
        <mxCell id="nqcRDhzoilnJjKWwHqof-577" value="LO" style="shape=partialRectangle;html=1;whiteSpace=wrap;connectable=0;strokeColor=inherit;overflow=hidden;fillColor=none;top=0;left=0;bottom=0;right=0;pointerEvents=1;fontSize=16;" parent="nqcRDhzoilnJjKWwHqof-575" vertex="1">
          <mxGeometry x="159" width="80" height="28" as="geometry">
            <mxRectangle width="80" height="28" as="alternateBounds" />
          </mxGeometry>
        </mxCell>
        <mxCell id="nqcRDhzoilnJjKWwHqof-578" value="LO" style="shape=partialRectangle;html=1;whiteSpace=wrap;connectable=0;strokeColor=inherit;overflow=hidden;fillColor=none;top=0;left=0;bottom=0;right=0;pointerEvents=1;fontSize=16;" parent="nqcRDhzoilnJjKWwHqof-575" vertex="1">
          <mxGeometry x="239" width="80" height="28" as="geometry">
            <mxRectangle width="80" height="28" as="alternateBounds" />
          </mxGeometry>
        </mxCell>
        <mxCell id="nqcRDhzoilnJjKWwHqof-606" value="LO" style="shape=partialRectangle;html=1;whiteSpace=wrap;connectable=0;strokeColor=inherit;overflow=hidden;fillColor=none;top=0;left=0;bottom=0;right=0;pointerEvents=1;fontSize=16;" parent="nqcRDhzoilnJjKWwHqof-575" vertex="1">
          <mxGeometry x="319" width="80" height="28" as="geometry">
            <mxRectangle width="80" height="28" as="alternateBounds" />
          </mxGeometry>
        </mxCell>
        <mxCell id="nqcRDhzoilnJjKWwHqof-706" value="LO" style="shape=partialRectangle;html=1;whiteSpace=wrap;connectable=0;strokeColor=inherit;overflow=hidden;fillColor=none;top=0;left=0;bottom=0;right=0;pointerEvents=1;fontSize=16;" parent="nqcRDhzoilnJjKWwHqof-575" vertex="1">
          <mxGeometry x="399" width="80" height="28" as="geometry">
            <mxRectangle width="80" height="28" as="alternateBounds" />
          </mxGeometry>
        </mxCell>
        <mxCell id="nqcRDhzoilnJjKWwHqof-719" value="HI" style="shape=partialRectangle;html=1;whiteSpace=wrap;connectable=0;strokeColor=inherit;overflow=hidden;fillColor=none;top=0;left=0;bottom=0;right=0;pointerEvents=1;fontSize=16;" parent="nqcRDhzoilnJjKWwHqof-575" vertex="1">
          <mxGeometry x="479" width="80" height="28" as="geometry">
            <mxRectangle width="80" height="28" as="alternateBounds" />
          </mxGeometry>
        </mxCell>
        <mxCell id="E0iXmqLrySQl37-EB1Gj-2" value="int64_t frequencySSB_Hz" style="text;html=1;align=center;verticalAlign=middle;whiteSpace=wrap;rounded=0;fontFamily=Courier New;fontStyle=1;strokeColor=default;" parent="1" vertex="1">
          <mxGeometry x="760" y="1240" width="200" height="30" as="geometry" />
        </mxCell>
        <mxCell id="E0iXmqLrySQl37-EB1Gj-3" value="bool clockEnableSSB" style="text;html=1;align=center;verticalAlign=middle;whiteSpace=wrap;rounded=0;fontFamily=Courier New;fontStyle=1;strokeColor=default;" parent="1" vertex="1">
          <mxGeometry x="760" y="1320" width="200" height="30" as="geometry" />
        </mxCell>
        <mxCell id="E0iXmqLrySQl37-EB1Gj-4" value="uint8_t driveCurrentSSB_mA" style="text;html=1;align=center;verticalAlign=middle;whiteSpace=wrap;rounded=0;fontFamily=Courier New;fontStyle=1;strokeColor=default;" parent="1" vertex="1">
          <mxGeometry x="760" y="1280" width="200" height="30" as="geometry" />
        </mxCell>
        <mxCell id="E0iXmqLrySQl37-EB1Gj-5" value="int64_t frequencyCW_Hz" style="text;html=1;align=center;verticalAlign=middle;whiteSpace=wrap;rounded=0;fontFamily=Courier New;fontStyle=1;strokeColor=default;" parent="1" vertex="1">
          <mxGeometry x="1000" y="1240" width="200" height="30" as="geometry" />
        </mxCell>
        <mxCell id="E0iXmqLrySQl37-EB1Gj-6" value="uint8_t driveCurrentCW_mA" style="text;html=1;align=center;verticalAlign=middle;whiteSpace=wrap;rounded=0;fontFamily=Courier New;fontStyle=1;strokeColor=default;" parent="1" vertex="1">
          <mxGeometry x="1000" y="1280" width="200" height="30" as="geometry" />
        </mxCell>
        <mxCell id="E0iXmqLrySQl37-EB1Gj-7" value="bool clockEnableCW" style="text;html=1;align=center;verticalAlign=middle;whiteSpace=wrap;rounded=0;fontFamily=Courier New;fontStyle=1;strokeColor=default;" parent="1" vertex="1">
          <mxGeometry x="1000" y="1320" width="200" height="30" as="geometry" />
        </mxCell>
        <mxCell id="E0iXmqLrySQl37-EB1Gj-8" value="SSB VFO" style="text;html=1;align=center;verticalAlign=middle;whiteSpace=wrap;rounded=0;" parent="1" vertex="1">
          <mxGeometry x="830" y="1210" width="60" height="30" as="geometry" />
        </mxCell>
        <mxCell id="E0iXmqLrySQl37-EB1Gj-9" value="CW VFO" style="text;html=1;align=center;verticalAlign=middle;whiteSpace=wrap;rounded=0;" parent="1" vertex="1">
          <mxGeometry x="1080" y="1210" width="60" height="30" as="geometry" />
        </mxCell>
        <mxCell id="E0iXmqLrySQl37-EB1Gj-10" value="ED.centerFreq_Hz" style="text;html=1;align=left;verticalAlign=middle;whiteSpace=wrap;rounded=0;fontFamily=Courier New;fontStyle=1;strokeColor=default;" parent="1" vertex="1">
          <mxGeometry x="850" y="1400" width="200" height="30" as="geometry" />
        </mxCell>
        <mxCell id="E0iXmqLrySQl37-EB1Gj-11" value="ED.fineTuneFreq_Hz" style="text;html=1;align=left;verticalAlign=middle;whiteSpace=wrap;rounded=0;fontFamily=Courier New;fontStyle=1;strokeColor=default;" parent="1" vertex="1">
          <mxGeometry x="850" y="1480" width="200" height="30" as="geometry" />
        </mxCell>
        <mxCell id="E0iXmqLrySQl37-EB1Gj-22" style="edgeStyle=orthogonalEdgeStyle;rounded=0;orthogonalLoop=1;jettySize=auto;html=1;exitX=0;exitY=0.5;exitDx=0;exitDy=0;entryX=0.5;entryY=1;entryDx=0;entryDy=0;" parent="1" source="E0iXmqLrySQl37-EB1Gj-12" target="E0iXmqLrySQl37-EB1Gj-17" edge="1">
          <mxGeometry relative="1" as="geometry" />
        </mxCell>
        <mxCell id="E0iXmqLrySQl37-EB1Gj-23" style="edgeStyle=orthogonalEdgeStyle;rounded=0;orthogonalLoop=1;jettySize=auto;html=1;exitX=0;exitY=0.5;exitDx=0;exitDy=0;entryX=0.5;entryY=0;entryDx=0;entryDy=0;" parent="1" source="E0iXmqLrySQl37-EB1Gj-12" target="E0iXmqLrySQl37-EB1Gj-18" edge="1">
          <mxGeometry relative="1" as="geometry" />
        </mxCell>
        <mxCell id="E0iXmqLrySQl37-EB1Gj-26" style="edgeStyle=orthogonalEdgeStyle;rounded=0;orthogonalLoop=1;jettySize=auto;html=1;exitX=0;exitY=0.5;exitDx=0;exitDy=0;entryX=0.5;entryY=1;entryDx=0;entryDy=0;" parent="1" source="E0iXmqLrySQl37-EB1Gj-12" target="E0iXmqLrySQl37-EB1Gj-16" edge="1">
          <mxGeometry relative="1" as="geometry" />
        </mxCell>
        <mxCell id="E0iXmqLrySQl37-EB1Gj-27" style="edgeStyle=orthogonalEdgeStyle;rounded=0;orthogonalLoop=1;jettySize=auto;html=1;exitX=0;exitY=0.5;exitDx=0;exitDy=0;entryX=0.5;entryY=0;entryDx=0;entryDy=0;" parent="1" source="E0iXmqLrySQl37-EB1Gj-12" target="E0iXmqLrySQl37-EB1Gj-19" edge="1">
          <mxGeometry relative="1" as="geometry" />
        </mxCell>
        <mxCell id="E0iXmqLrySQl37-EB1Gj-12" value="ED.activeVFO" style="text;html=1;align=center;verticalAlign=middle;whiteSpace=wrap;rounded=0;fontFamily=Courier New;fontStyle=1;strokeColor=default;" parent="1" vertex="1">
          <mxGeometry x="1090" y="1440" width="110" height="30" as="geometry" />
        </mxCell>
        <mxCell id="E0iXmqLrySQl37-EB1Gj-16" value="B" style="rounded=0;whiteSpace=wrap;html=1;fontFamily=Courier New;fontStyle=1" parent="1" vertex="1">
          <mxGeometry x="1020" y="1400" width="30" height="30" as="geometry" />
        </mxCell>
        <mxCell id="E0iXmqLrySQl37-EB1Gj-17" value="A" style="rounded=0;whiteSpace=wrap;html=1;fontFamily=Courier New;fontStyle=1" parent="1" vertex="1">
          <mxGeometry x="990" y="1400" width="30" height="30" as="geometry" />
        </mxCell>
        <mxCell id="E0iXmqLrySQl37-EB1Gj-18" value="A" style="rounded=0;whiteSpace=wrap;html=1;fontFamily=Courier New;fontStyle=1" parent="1" vertex="1">
          <mxGeometry x="990" y="1480" width="30" height="30" as="geometry" />
        </mxCell>
        <mxCell id="E0iXmqLrySQl37-EB1Gj-19" value="B" style="rounded=0;whiteSpace=wrap;html=1;fontFamily=Courier New;fontStyle=1" parent="1" vertex="1">
          <mxGeometry x="1020" y="1480" width="30" height="30" as="geometry" />
        </mxCell>
        <mxCell id="E0iXmqLrySQl37-EB1Gj-30" style="edgeStyle=orthogonalEdgeStyle;rounded=0;orthogonalLoop=1;jettySize=auto;html=1;exitX=1;exitY=0.5;exitDx=0;exitDy=0;entryX=0;entryY=0.5;entryDx=0;entryDy=0;" parent="1" source="E0iXmqLrySQl37-EB1Gj-28" target="E0iXmqLrySQl37-EB1Gj-29" edge="1">
          <mxGeometry relative="1" as="geometry" />
        </mxCell>
        <mxCell id="E0iXmqLrySQl37-EB1Gj-28" value="Set VFO freq&lt;div&gt;to freq_Hz&lt;/div&gt;" style="ellipse;whiteSpace=wrap;html=1;" parent="1" vertex="1">
          <mxGeometry x="760" y="1540" width="120" height="80" as="geometry" />
        </mxCell>
        <mxCell id="E0iXmqLrySQl37-EB1Gj-29" value="&lt;div style=&quot;line-height: 19px; white-space: pre;&quot;&gt;&lt;span&gt;&lt;font&gt;&lt;span&gt;TXRX = centerFreq_Hz&lt;/span&gt;&lt;font&gt; &lt;/font&gt;&lt;span&gt;+&lt;/span&gt;&lt;font&gt; &lt;/font&gt;&lt;span&gt;fineTuneFreq_Hz&lt;/span&gt;&lt;font&gt; &lt;/font&gt;&lt;span&gt;-&lt;/span&gt;&lt;font&gt; &lt;/font&gt;&lt;span&gt;SR&lt;/span&gt;&lt;span&gt;&lt;font&gt;/&lt;/font&gt;&lt;/span&gt;&lt;span&gt;4&lt;/span&gt;&lt;/font&gt;&lt;/span&gt;&lt;/div&gt;&lt;div style=&quot;text-align: left; line-height: 19px; white-space: pre;&quot;&gt;&lt;span&gt;&lt;font&gt;&lt;span&gt;     = freq_Hz&lt;/span&gt;&lt;/font&gt;&lt;/span&gt;&lt;/div&gt;&lt;div style=&quot;text-align: left; line-height: 19px; white-space: pre;&quot;&gt;Let fineTuneFreq_Hz = 0&lt;/div&gt;&lt;div style=&quot;text-align: left; line-height: 19px; white-space: pre;&quot;&gt;Therefore: centerFreq_Hz = freq_Hz + SR/4&lt;/div&gt;" style="rounded=1;whiteSpace=wrap;html=1;fontColor=#000000;fontFamily=Courier New;fontStyle=1;fontSize=10;" parent="1" vertex="1">
          <mxGeometry x="939.5" y="1535" width="280.5" height="90" as="geometry" />
        </mxCell>
        <mxCell id="E0iXmqLrySQl37-EB1Gj-34" style="edgeStyle=orthogonalEdgeStyle;rounded=0;orthogonalLoop=1;jettySize=auto;html=1;exitX=1;exitY=1;exitDx=0;exitDy=0;entryX=0;entryY=1;entryDx=0;entryDy=0;" parent="1" source="E0iXmqLrySQl37-EB1Gj-31" target="E0iXmqLrySQl37-EB1Gj-32" edge="1">
          <mxGeometry relative="1" as="geometry" />
        </mxCell>
        <mxCell id="E0iXmqLrySQl37-EB1Gj-36" style="edgeStyle=orthogonalEdgeStyle;rounded=0;orthogonalLoop=1;jettySize=auto;html=1;exitX=0;exitY=1;exitDx=0;exitDy=0;entryX=0;entryY=0;entryDx=0;entryDy=0;" parent="1" source="E0iXmqLrySQl37-EB1Gj-31" target="E0iXmqLrySQl37-EB1Gj-33" edge="1">
          <mxGeometry relative="1" as="geometry" />
        </mxCell>
        <mxCell id="E0iXmqLrySQl37-EB1Gj-31" value="CW/SSB Receive" style="ellipse;whiteSpace=wrap;html=1;" parent="1" vertex="1">
          <mxGeometry x="315" y="1700" width="120" height="80" as="geometry" />
        </mxCell>
        <mxCell id="E0iXmqLrySQl37-EB1Gj-35" style="edgeStyle=orthogonalEdgeStyle;rounded=0;orthogonalLoop=1;jettySize=auto;html=1;exitX=0;exitY=0;exitDx=0;exitDy=0;entryX=1;entryY=0;entryDx=0;entryDy=0;" parent="1" source="E0iXmqLrySQl37-EB1Gj-32" target="E0iXmqLrySQl37-EB1Gj-31" edge="1">
          <mxGeometry relative="1" as="geometry" />
        </mxCell>
        <mxCell id="E0iXmqLrySQl37-EB1Gj-32" value="SSB Transmit" style="ellipse;whiteSpace=wrap;html=1;" parent="1" vertex="1">
          <mxGeometry x="520" y="1700" width="120" height="80" as="geometry" />
        </mxCell>
        <mxCell id="E0iXmqLrySQl37-EB1Gj-37" style="edgeStyle=orthogonalEdgeStyle;rounded=0;orthogonalLoop=1;jettySize=auto;html=1;exitX=1;exitY=0;exitDx=0;exitDy=0;entryX=1;entryY=1;entryDx=0;entryDy=0;" parent="1" source="E0iXmqLrySQl37-EB1Gj-33" target="E0iXmqLrySQl37-EB1Gj-31" edge="1">
          <mxGeometry relative="1" as="geometry" />
        </mxCell>
        <mxCell id="E0iXmqLrySQl37-EB1Gj-33" value="CW Transmit" style="ellipse;whiteSpace=wrap;html=1;" parent="1" vertex="1">
          <mxGeometry x="315" y="1850" width="120" height="80" as="geometry" />
        </mxCell>
      </root>
    </mxGraphModel>
  </diagram>
</mxfile>
